<svg height="400" width="600" xmlns="http://www.w3.org/2000/svg"><g transform="matrix(.9259 0 0 .92703 -.38 -.373)"><path d="m.41.402v144h648v-144h-648z" fill="#002488"/><path d="m410.905 328.281c0 1 3.4 3.2 7.6 5 7 3 15.4 6 77.4 28.2 26.6 9.6 37 12.4 37 9.8 0-1-24-9.8-53.4-19.4-29.6-9.8-57-19.4-61-21.6-4.2-2-7.6-2.8-7.6-2zm28.2 17.343c1.2 2 74.6 32 87 35.6 4.6 1.4 6.6-2.4 2-4-1.4-.4-15.2-5.4-30.6-11-23.6-8.6-35.4-13-56.8-21.6-1.8-.6-2.4-.2-1.6 1z" fill="#008000"/><path d="m.424 143.887v288h648v-288h-648z"/><path d="m214.985 225.884c2.254 5.502 10.25 9.264 20.98 10.19 7.262.515 3.93-2.613-6.218-6.307-4.767-1.522-10.32-4.395-12.677-6.104-4.151-3.214-4.151-3.214-2.085 2.22z" fill="#008000"/><path d="m56.993 8.06c-3.956 6.517-4.428 11.729-1.728 20.729 1.3 4.2 2.728 10.472 3.328 13.872.8 4.8.717 5.256.829 6.3 1 0 3.272.003 4.323-.003.151-1.662.273-3.58.628-6.217.414-3.076 1.64-9.508 2.96-13.975 2.637-8.928 2.46-14.405-1.64-20.605-1.5-2.3-3.5-4.2-4.4-4.2s-2.936 1.756-4.3 4.1zm19.428 18.437c-5.6 2.4-8.968 9.044-10.808 18.2-.34 1.719-.422 2.326-.593 4.264 1.212.005 1.689.013 2.87.006.26-1.304.445-1.992 1.015-3.842 2.26-7.156 8.916-10.028 8.616-3.328-.1 1.85-.88 2.883-1.75 3.874 1.075-.267 3.356-1.332 5.206-2.382 10.3-6.2 6.244-21.392-4.556-16.792zm-22.883 24.8c4.52.02 12.33.055 16.083.035.004-.964.018-.472.027-1.25-2.762-.024-13.338.014-16.088.014.006.504-.007.748-.022 1.2zm1.33 5.291c-1.63 1.756-4.175 3.07-4.175 3.07s2.252.252 4.351.1c2.1-.154 3.265-.416 4.506-1.019a44.567 44.567 0 0 0 -.357 4.918c.306 3.22.651 4.044 1.35 5.61.947 1.308 1.498 1.315 2.194-.065.753-1.546 1.248-3.135 1.405-5.56-.054-1.817-.156-2.65-.586-4.872 1.452.629 2.37.792 4.537.987 2.218.2 4.257.102 4.257.102s-2.996-1.504-4.315-3.347c-1.301-1.82-1.024-1.511-1.97-3.856-1.15-.054-6.98 0-8.83 0-1.014 2.137-1.116 2.583-2.367 3.932zm-8.233-30.095c5.6 2.4 8.968 9.044 10.808 18.2.34 1.72.422 2.327.593 4.264-1.212.005-1.689.014-2.87.006-.259-1.303-.445-1.991-1.015-3.842-2.26-7.156-8.916-10.028-8.616-3.328.1 1.85.88 2.883 1.75 3.875-1.075-.268-3.356-1.333-5.206-2.383-10.3-6.2-6.244-21.392 4.556-16.792z" fill="#fcdd09" transform="matrix(2 0 0 2 .31 .402)"/><path d="m56.993 8.06c-3.956 6.517-4.428 11.729-1.728 20.729 1.3 4.2 2.728 10.472 3.328 13.872.8 4.8.717 5.256.829 6.3 1 0 3.272.003 4.323-.003.151-1.662.273-3.58.628-6.217.414-3.076 1.64-9.508 2.96-13.975 2.637-8.928 2.46-14.405-1.64-20.605-1.5-2.3-3.5-4.2-4.4-4.2s-2.936 1.756-4.3 4.1zm19.428 18.437c-5.6 2.4-8.968 9.044-10.808 18.2-.34 1.719-.422 2.326-.593 4.264 1.212.005 1.689.013 2.87.006.26-1.304.445-1.992 1.015-3.842 2.26-7.156 8.916-10.028 8.616-3.328-.1 1.85-.88 2.883-1.75 3.874 1.075-.267 3.356-1.332 5.206-2.382 10.3-6.2 6.244-21.392-4.556-16.792zm-22.883 24.8c4.52.02 12.33.055 16.083.035.004-.964.018-.472.027-1.25-2.762-.024-13.338.014-16.088.014.006.504-.007.748-.022 1.2zm1.33 5.291c-1.63 1.756-4.175 3.07-4.175 3.07s2.252.252 4.351.1c2.1-.154 3.265-.416 4.506-1.019a44.567 44.567 0 0 0 -.357 4.918c.306 3.22.651 4.044 1.35 5.61.947 1.308 1.498 1.315 2.194-.065.753-1.546 1.248-3.135 1.405-5.56-.054-1.817-.156-2.65-.586-4.872 1.452.629 2.37.792 4.537.987 2.218.2 4.257.102 4.257.102s-2.996-1.504-4.315-3.347c-1.301-1.82-1.024-1.511-1.97-3.856-1.15-.054-6.98 0-8.83 0-1.014 2.137-1.116 2.583-2.367 3.932zm-8.233-30.095c5.6 2.4 8.968 9.044 10.808 18.2.34 1.72.422 2.327.593 4.264-1.212.005-1.689.014-2.87.006-.259-1.303-.445-1.991-1.015-3.842-2.26-7.156-8.916-10.028-8.616-3.328.1 1.85.88 2.883 1.75 3.875-1.075-.268-3.356-1.333-5.206-2.383-10.3-6.2-6.244-21.392 4.556-16.792z" fill="#fcdd09" transform="matrix(2 0 0 2 200.032 .402)"/><path d="m56.993 8.06c-3.956 6.517-4.428 11.729-1.728 20.729 1.3 4.2 2.728 10.472 3.328 13.872.8 4.8.717 5.256.829 6.3 1 0 3.272.003 4.323-.003.151-1.662.273-3.58.628-6.217.414-3.076 1.64-9.508 2.96-13.975 2.637-8.928 2.46-14.405-1.64-20.605-1.5-2.3-3.5-4.2-4.4-4.2s-2.936 1.756-4.3 4.1zm19.428 18.437c-5.6 2.4-8.968 9.044-10.808 18.2-.34 1.719-.422 2.326-.593 4.264 1.212.005 1.689.013 2.87.006.26-1.304.445-1.992 1.015-3.842 2.26-7.156 8.916-10.028 8.616-3.328-.1 1.85-.88 2.883-1.75 3.874 1.075-.267 3.356-1.332 5.206-2.382 10.3-6.2 6.244-21.392-4.556-16.792zm-22.883 24.8c4.52.02 12.33.055 16.083.035.004-.964.018-.472.027-1.25-2.762-.024-13.338.014-16.088.014.006.504-.007.748-.022 1.2zm1.33 5.291c-1.63 1.756-4.175 3.07-4.175 3.07s2.252.252 4.351.1c2.1-.154 3.265-.416 4.506-1.019a44.567 44.567 0 0 0 -.357 4.918c.306 3.22.651 4.044 1.35 5.61.947 1.308 1.498 1.315 2.194-.065.753-1.546 1.248-3.135 1.405-5.56-.054-1.817-.156-2.65-.586-4.872 1.452.629 2.37.792 4.537.987 2.218.2 4.257.102 4.257.102s-2.996-1.504-4.315-3.347c-1.301-1.82-1.024-1.511-1.97-3.856-1.15-.054-6.98 0-8.83 0-1.014 2.137-1.116 2.583-2.367 3.932zm-8.233-30.095c5.6 2.4 8.968 9.044 10.808 18.2.34 1.72.422 2.327.593 4.264-1.212.005-1.689.014-2.87.006-.259-1.303-.445-1.991-1.015-3.842-2.26-7.156-8.916-10.028-8.616-3.328.1 1.85.88 2.883 1.75 3.875-1.075-.268-3.356-1.333-5.206-2.383-10.3-6.2-6.244-21.392 4.556-16.792z" fill="#fcdd09" transform="matrix(2 0 0 2 406.445 -.3)"/><g fill="#008000"><path d="m113.906 184.71c5.8 8.6 12.4 14.8 25.2 23.4 9.4 6.4 17.6 11.4 18 11 .8-1-46-44.4-49.2-45.6-1.2-.4 1.4 4.6 6 11.2zm120.411 45.793c4.343 2.024 9.887 3.62 12.683 3.714 3.305.11 2.428-.701-3.74-3.1-4.828-1.885-10.602-5.053-13.165-7.017-4.594-3.755-4.594-3.755-4.113-.452.275 1.887 3.739 4.822 8.335 6.855z"/><path d="m207.306 191.482c2.8 11.2 14.4 31.8 18.4 32.6 3.6.6 3.6.4.6-3-5-5.8-15.8-27-15.8-31 0-2.2-1-3.8-2.2-3.8-1.4 0-1.8 2-1 5.2zm-120.216-14.044c-.07.394 3.685 3.29 8.39 6.556 4.704 3.267 10.184 7.889 12.004 10.24 3.117 4.206 20.775 14.63 22.431 13.298 1.622-1.136-21.123-19.566-30.74-24.917-11.448-6.486-11.842-6.556-12.085-5.177z"/><path d="m93.535 192.825c0 .4 4.2 2.6 9.4 5s11.4 6 13.6 8c3.8 3.6 23 10.8 24.4 9.2 1.4-1.4-24.2-15.6-34.6-19.2-12.4-4.4-12.8-4.4-12.8-3zm89.2 7.057c7.6 14 15.4 23.2 18.6 22.2 1.6-.6-2-6.4-9.8-15.8-7-8.2-13-15.4-13.6-16s1.6 3.8 4.8 9.6zm9.828-5.457c0 2.2 7.8 17.4 12.4 23.8 2.6 3.6 5.6 5.6 9 5.6 5 0 5 0-2.6-8.6-4.4-4.6-10.2-11.6-13.2-15.4s-5.6-6.2-5.6-5.4zm-18.388 6.457c0 3 14.62 23 16.885 23 1.03 0-1.441-4.8-5.765-10.6-9.678-13.2-11.12-14.6-11.12-12.4zm-13.811 55.113c-13.2 5.2-16 7-16 9.8 0 1.2 1.4 1 3.6-.8 1.8-1.8 8.4-4.2 14.4-5.6s13.2-3.8 16-5.2l5-2.6h-6c-3.2.2-11 2.2-17 4.4z"/><path d="m122.883 222.02c9.862 8.969 42.845 25.91 59.557 30.894 4.529 1.331 11.877 1.637 16.028.764l7.74-1.54-7.639-4.03c-12.321-6.37-32.557-19.863-39.82-26.371-7.914-7.123-7.657-4.663.394 5.177 3.145 3.963 12.443 10.796 20.594 15.065 8.22 4.457 13.963 8.54 13.024 8.881-2.444.89-25.003-11.97-42.162-24.029-18.646-13.22-19.415-13.578-12.475-5.037 3.402 4.083 9.692 9.669 14.255 12.265 4.443 2.852 7.485 5.363 6.546 5.705-1.88.684-13.57-5.703-28.83-15.473-4.256-2.92-10.05-6.558-12.562-8.198-2.769-1.759-.29.957 5.35 5.928z"/><path d="m124.335 219.224-8 2.6 6 1c3.2.8 7.4.4 9.4-.6 1.8-1 5.4-1.8 8-2 4.4 0 4.4-.2.6-1.8-5-2.2-6.2-2.2-16 .8zm9.857 5.428c-3.4 2.6-3.2 2.8 4.2 1.6 4.4-.6 10.8-1.8 14-2.6 5.2-1.4 4.8-1.6-4.2-1.8-6-.2-11.6 1-14 2.8z"/><path d="m84.506 203.624c33 6 99.2 28.2 95.2 32-1 1-19.6-3.6-22.2-5.4-1-1-10.8-.6-21.6.8-20.2 2.2-23.6 4-23.2 12.2.2 4 .2 4 1.2 0 1.8-7.4 4.8-9 16.2-9 12.4 0 46.4 5 61.4 9 20 5.6 20.6 5.6 14 2-8.6-4.8-21.6-13.6-24-16.2-4.4-5-84.2-27-95.8-26.6-5.4.4-5.6.4-1.2 1.2z"/><path d="m99.678 214.281c-2.4 1.8-5 6-5.6 9.4-1.2 5.8-1.2 5.8 2 2 8.4-10.6 9-11 19.4-11.2 8.4-.2 9.6-.6 5.6-1.8-8.4-2.6-16.8-2-21.4 1.6zm101.943 12.343c1.6 2.8 17.2 10.6 18.4 9.4.6-.6-1.2-2.2-3.6-3.6-2.6-1.4-6-3.6-7.4-5.2-3.2-3-9.2-3.6-7.4-.6zm1.203 19.001c1.6 2.8 17.2 10.6 18.4 9.4.6-.6-1.2-2.2-3.6-3.6-2.6-1.4-6-3.6-7.4-5.2-3.2-3-9.2-3.6-7.4-.6z"/><path d="m180.465 221.812c.287-.278 4.787 1.215 10.126 3.289 5.339 2.073 12.235 4.032 15.202 4.225 5.23.233 23.746 9.043 23.568 11.161-.035 1.98-28.033-6.571-37.847-11.551-11.779-5.864-12.057-6.151-11.05-7.124z"/><path d="m213.591 236.429c-3.73 1.442-7.483 4.05-8.649 5.915-1.377 2.205-.211 2.226 4.6-.19 3.774-1.888 9.222-3.436 12.212-3.69 5.596-.277 5.596-.277 2.035-2.503-2.036-1.271-6.36-1.144-10.198.468z"/><path d="m190.559 250.782c-11.399 10.223-13.92 17.35-10.268 27.94l3.156 9.069-.879-9.178c-1.359-12.596 2.037-18.326 15.837-28.277 6.486-4.632 11.641-8.83 11.518-9.21-.68-2.093-13.567 4.197-19.364 9.656zm-70.567-81.758c6.2 11.8 31.4 39 45.4 49.4 3.8 2.8 10.6 5.6 14.8 6.2l7.8 1.2-5.8-6.4c-9.4-10.2-23.8-29.8-28.4-38.4-5-9.4-5.6-7-1.4 5 1.6 4.8 8 14.4 14.2 21.2 6.2 7 10.2 12.8 9.2 12.8-2.6 0-19.4-19.8-31.4-37-13-18.8-13.6-19.4-10-9 1.8 5 5.8 12.4 9.2 16.4 3.2 4.2 5.2 7.6 4.2 7.6-2 0-10.8-10-21.8-24.4-3-4.2-7.2-9.6-9-12-2-2.6-.6.8 3 7.4z"/><path d="m184.506 225.024c0 1.4 3 5 6.6 7.8 10.6 8 38.8 21.4 42.4 20 2.2-.8-1.2-3-10.8-6.6-16.8-6.6-32.2-15.4-32.2-18.4 0-1.6 6.6-1.8 23-.8 24.6 1.4 32-1.4 9.6-3.4-23.6-2.4-38.6-1.8-38.6 1.4zm-52.8 21.4c-8.6 2-13.2 5-13.2 8.6 0 1.4.8 1.2 1.8-.4 1.6-2.6 18-7.4 19.6-5.8.4.4-.2 3.4-1.4 6.4s-1.6 6-1 6.6c.6.8 1.6-.8 2.2-3 2.4-8.6 9.8-11.2 27.6-9.6 9 .8 19 1.8 22.2 2 3.4.2 8 1.4 10.4 2.8 5.2 2.8 25.4 3 23.6.2-.6-1-4.4-2.4-8.6-3-4-.6-12.4-2.6-18.6-4.2-12.4-3.2-52-3.6-64.6-.6zm73.034 23.086c-15.074-2.688-22.243-.287-28.34 9.11l-5.202 8.071 6.69-6.343c9.09-8.826 15.696-9.678 32.034-4.93 7.643 2.26 14.125 3.738 14.349 3.406 1.23-1.824-11.661-8.106-19.531-9.314z"/><path d="m185.221 263.938c-27.8 7.6-31 10.4-27 23 1.6 4.8 1.6 4.6 1.8-1.6.2-3.4 2-8.2 4-10.2 3.6-3.6 19.8-8.2 39.6-11.4 4.8-.6 8-2 7.4-3-1.6-2.6-8-1.8-25.8 3.2zm23.628 9.772c-14 6.2-18.6 12.2-18.4 23.4l.2 9.6 2-9c2.6-12.4 7.6-16.8 23.8-22 7.6-2.4 13.8-4.8 13.8-5.2 0-2.2-14.2-.2-21.4 3.2z"/><path d="m206.192 290.88c-2.4 3.2-4.2 7.4-4.2 9.6 0 2.6 1 2 3.8-2.6 2.2-3.6 6-7.8 8.4-9.6 4.6-3.2 4.6-3.2.4-3.2-2.4 0-6 2.4-8.4 5.8zm216.232 32.594c6.495 2.814 40.19 11.311 64.03 18.293s51.715 15.02 57.885 15.885c8.819-19.221-7.23 16.732 1.929-5.059-11.907-3.03-58.84-14.073-77.673-19.485-16.237-4.546-39.27-11.638-45.17-12.937-5.899-1.299-5.98 1.138-1 3.303z"/><path d="m426.544 318.484c6.59 2.586 40.56 9.902 64.63 16.047 24.07 6.146 52.207 13.206 58.403 13.856 8.143-19.518-6.642 16.973 1.751-5.123-12.005-2.614-59.294-12.012-78.305-16.763-16.386-3.977-39.653-10.26-45.594-11.353-5.94-1.092-5.937 1.346-.885 3.336zm-9.328 8.616c6.338 3.15 39.542 13.4 62.984 21.62 23.443 8.219 50.858 17.704 56.974 18.892 9.813-18.734-8.096 16.33 2.191-4.951-11.731-3.65-58.021-17.133-76.547-23.524-15.976-5.39-38.607-13.677-44.43-15.283s-6.031.823-1.172 3.246z"/><path d="m413.171 331.195c6.165 3.478 38.787 15.45 61.767 24.886s49.862 20.343 55.907 21.85c10.78-18.196-8.94 15.883 2.447-4.83-11.524-4.26-57.045-20.147-75.21-27.498-15.673-6.219-37.839-15.68-43.57-17.587-5.731-1.909-6.066.506-1.34 3.179z"/><path d="m409.362 336.354c6.04 3.69 38.224 16.795 60.86 27.027 22.638 10.232 49.122 22.07 55.111 23.787 11.409-17.808-9.488 15.562 2.615-4.742-11.37-4.658-56.308-22.125-74.206-30.106-15.446-6.761-37.268-16.99-42.93-19.097-5.66-2.107-6.08.294-1.45 3.131z"/><path d="m405.063 341.055c5.838 4.002 37.292 18.773 59.363 30.175 22.07 11.403 47.899 24.611 53.79 26.639 12.324-17.186-10.29 15.044 2.859-4.598-11.11-5.247-55.073-25.042-72.528-33.948-15.071-7.561-36.328-18.917-41.871-21.318-5.543-2.4-6.088-.025-1.613 3.05z"/></g><path d="m335.417 383.571 6.478 4.627c9.286 6.468 14.392 15.46 13.887 24.738l-.343 7.663 3.048-7.54c3.335-7.89 2.876-19.837-1.063-28.685l-2.298-5.16 7.297 3.177c10.428 4.398 17.294 12.129 18.728 21.313l1.257 7.567 1.414-8.01c1.62-8.413-1.31-20-7.005-27.836l-3.32-4.572 7.799 1.59c11.114 2.135 19.437 8.27 22.75 16.957l2.803 7.14-.283-8.13c-.163-8.565-5.441-19.29-12.639-25.772l-4.198-3.781 7.959-.065c11.314-.223 20.732 4.048 25.778 11.857l4.225 6.4-1.966-7.893c-1.94-8.34-9.332-17.735-17.72-22.578l-4.894-2.827 7.773-1.716c11.02-2.574 21.12-.352 27.679 6.235l5.463 5.382-3.565-7.312c-3.631-7.756-12.815-15.41-22.027-18.403l-5.374-1.743 7.245-3.297c10.244-4.808 20.585-4.735 28.37.343l6.465 4.13-5.007-6.411c-5.166-6.834-15.74-12.408-25.373-13.42l-5.618-.589 6.402-4.732c9.02-6.83 19.15-8.913 27.821-5.562l7.183 2.694-6.23-5.229c-6.474-5.608-17.976-8.865-27.61-7.85l-5.617.588 5.277-5.959c7.403-8.557 16.88-12.698 26.058-11.222l7.585 1.14-7.183-3.818c-7.498-4.14-19.425-4.934-28.637-1.94l-5.374 1.743 3.922-6.924c5.463-9.91 13.871-15.93 23.155-16.398l7.657-.459-7.82-2.241c-8.195-2.491-20.026-.786-28.415 4.055l-4.893 2.825 2.399-7.59c3.283-10.829 10.254-18.464 19.24-20.852l7.394-2.042-8.115-.566c-8.534-.734-19.753 3.391-26.95 9.873l-4.2 3.78.769-7.92c.958-11.279 6.191-20.195 14.484-24.4l6.808-3.533-8.056 1.131c-8.5 1.057-18.615 7.426-24.308 15.262l-3.321 4.572-.896-7.909c-1.406-11.227 1.857-21.042 9.094-26.875l5.924-4.872-7.644 2.78c-8.095 2.802-16.664 11.135-20.604 19.984l-2.298 5.163-2.52-7.55c-3.711-10.691-2.558-20.969 3.307-28.179l4.783-5.997-6.899 4.308c-7.335 4.423-13.985 14.355-16 23.83l-1.174 5.528-4.036-6.86c-5.852-9.689-6.86-19.978-2.623-28.253l3.43-6.86-5.852 5.648c-6.255 5.854-10.695 16.954-10.695 26.638v5.65l-5.374-5.872c-7.736-8.255-10.862-18.114-8.438-27.088l1.927-7.425-4.55 6.745c-4.902 7.023-6.936 18.803-4.922 28.28l1.173 5.525-6.476-4.626c-9.287-6.47-14.393-15.46-13.888-24.743l.342-7.663-3.048 7.543c-3.334 7.89-2.874 19.834 1.063 28.683l2.298 5.163-7.297-3.178c-10.428-4.397-17.294-12.13-18.728-21.312l-1.258-7.567-1.412 8.01c-1.62 8.41 1.309 20 7.005 27.836l3.32 4.57-7.799-1.592c-11.114-2.133-19.436-8.268-22.75-16.955l-2.803-7.14.283 8.13c.163 8.565 5.441 19.29 12.64 25.77l4.198 3.782-7.96.064c-11.314.224-20.732-4.047-25.778-11.853l-4.226-6.402 1.967 7.891c1.94 8.345 9.332 17.74 17.72 22.582l4.893 2.826-7.772 1.716c-11.02 2.572-21.12.353-27.678-6.234l-5.465-5.383 3.565 7.311c3.632 7.758 12.817 15.409 22.028 18.401l5.374 1.747-7.245 3.296c-10.245 4.809-20.586 4.734-28.371-.345l-6.465-4.129 5.007 6.41c5.166 6.833 15.74 12.408 25.373 13.42l5.619.592-6.402 4.73c-9.022 6.833-19.152 8.911-27.823 5.561l-7.182-2.692 6.23 5.227c6.474 5.611 17.976 8.865 27.61 7.853l5.618-.59-5.278 5.957c-7.403 8.56-16.88 12.698-26.058 11.225l-7.585-1.143 7.183 3.82c7.499 4.142 19.426 4.935 28.638 1.942l5.374-1.746-3.924 6.927c-5.462 9.91-13.87 15.93-23.154 16.395l-7.657.458 7.82 2.244c8.195 2.49 20.026.786 28.415-4.056l4.893-2.826-2.397 7.59c-3.283 10.83-10.255 18.467-19.24 20.854l-7.395 2.042 8.115.567c8.535.732 19.753-3.395 26.95-9.876l4.2-3.782-.769 7.926c-.958 11.274-6.191 20.193-14.483 24.396l-6.809 3.535 8.056-1.13c8.5-1.057 18.615-7.43 24.308-15.266l3.321-4.57.897 7.91c1.406 11.228-1.858 21.04-9.095 26.875l-5.925 4.872 7.644-2.781c8.095-2.8 16.665-11.137 20.605-19.984l2.296-5.16 2.522 7.546c3.71 10.694 2.557 20.968-3.309 28.18l-4.782 6 6.899-4.312c7.335-4.422 13.985-14.356 16-23.83l1.174-5.526 4.036 6.861c5.852 9.686 6.86 19.978 2.623 28.251l-3.43 6.861 5.851-5.651c6.256-5.85 10.695-16.95 10.695-26.636v-5.65l5.375 5.872c7.736 8.258 10.862 18.115 8.44 27.089l-1.93 7.424 4.55-6.745c4.901-7.024 6.936-18.802 4.923-28.277l-1.174-5.526" fill="#fcdd09"/></g></svg>