<svg xmlns="http://www.w3.org/2000/svg" width="600" height="300"><path d="M0 0h600v300H0z" fill="#cf142b"/><path d="M309.845 214.987c.102-.307.307-3.479.204-3.479-.102 0-4.809-5.524-4.706-5.524.103 0 6.036 1.33 6.036 1.125 0-.204 2.354-5.832 2.354-5.934 0-.102 2.864 6.855 2.864 6.855l5.832 2.558-4.093 3.376s.921 6.548.921 6.65c0 .102-4.092-3.888-4.092-3.888l-4.502.512s-.614-2.047-.818-2.25z" font-size="12" fill="#f9dd16" fill-opacity=".988" fill-rule="evenodd" stroke="#000" stroke-width="1.1204094"/><path d="M278.145 129.01c-3.887 2.002-18.808 19.056-20.854 21.716-1.714 3.862-5.067 8.747-8.521 11.891-3.687 2.79-5.736 6.6-5.228 10.208-.042 4.489 2.476 7.546 4.48 10.704 1.187 1.443 2.784 2.376 4.482 2.49 3.482.46 3.791 1.532 5.534 2.195 6.866 9.349 17.109 16.242 24.485 21.703 4.702 2.478 7.972 4.957 9.092 6.31 2.16 4.124 1.763 8.145 1.467 10.12l-5.477 20.664c-.92 5.627 3.97 4.362 4.233 3.236 2.206-2.865 5.5-.853 10.206-17.427l6.472-8.713s2.49-.996 2.49-1.244c3.786-4.546.904-7.148-1.245-7.966l-4.73-1.744s-5.477-5.476-5.725-5.476c-2.603-7.571-15.377-23.734-18.345-25.985-2.054-2.14-3.031-3.052-4.981-4.243-2.997-1.433-3.965-1.9-5.8-2.633-1.53-.613-.441-2.291.531-3.059 10.118-5.508 18.139-11.629 27.848-17.853l1.493-.996-3.485-19.915-16.182-5.726c-.848.58-1.493 1.162-2.24 1.743z" font-size="12" fill="#fff" fill-rule="evenodd" stroke="#000" stroke-width="1.2998568000000001"/><path d="M291.684 233.864c.052-.204 10.129-2.047 10.129-2.047s-1.177 3.735-1.228 3.735l-10.026 3.018 1.125-4.706z" font-size="12" fill="#f9dd16" fill-rule="evenodd"/><path d="M265.424 195.92c1.944-5.166 7.34-9.257 10.965-10.385" font-size="12" fill="none" stroke="#000" stroke-width="1.1204094"/><path d="M291.322 233.955c.65-.184 3.54-1.027 4.38-1.157.898-.21 1.791-.446 2.654-.724.996-.203 1.62-.39 2.654-.58.81-.308 1.611-.52 2.478-.723m-13.99 9.414c.084-.112.77-.72 1.264-1.012.58-.184 2.566-1.027 3.317-1.158.802-.21 1.6-.445 2.37-.723.89-.203 1.447-.391 2.371-.58.724-.308 1.439-.52 2.212-.723" font-size="12" fill="none" stroke="#000" stroke-width="1.2389915999999999"/><path d="M293.59 197.383h-.145c.453 0 .175-.038-.435.723-.216.585-2.074 1.881-3.472 1.881-.675.073-1.712.145-2.387.145-.193 0-.459-.145-.652-.145m6.946 27.203h.723c.75 0 1.503.133 2.17.144.724 0 1.448.205 2.171.205.73.104 1.61.07 2.366.177.847.029 1.527.196 2.408.196.711.027 1.095.146 1.882.146l-1.882-.146c.711.027 1.095.146 1.882.146m-16.64 16.783c.078-.113.707-.72 1.158-1.013.531-.183 2.35-1.026 3.038-1.157.734-.21 1.464-.445 2.17-.723.815-.204 1.325-.391 2.171-.58.663-.309 1.318-.52 2.025-.723m2.988-20.953c-.41 1.188.12 1.487.34 1.999.382.497 1.356 1.254 2.894 1.736.594.16 1.05.316 1.737.58.455.041.678.155 1.012.288m-63.229-48.181h.145c-.454 0-.182.03.579-.58.47-.524.862-.762 1.301-1.301m7.344 12.188c.097 0 8.417-4.193 9.305-5.09.63-.456 1.106-.937 1.872-1.456.49-.256.843-.585 1.303-.868.382-.553.881-.888 1.157-1.395.51-.442.291-.922.706-1.456.196-.546.562-1.467.681-1.967m10.597 6.223c.046.3-.132 1.221-.12 1.923-.028.814-1.074 3.327-2.34 4.077" font-size="12" fill="none" stroke="#000" stroke-width="1.1204094"/><path d="M264.87 180.32c.05 0 1.316.41 3.433 1.063 2.548.915 7.847 4.255 8.373 4.715.537.422 1.498.8 1.866 1.301.575.498.997 1.072 1.447 1.592.529.645.98 1.19 1.302 1.736 1.609 1.305 5.938 10.342 6.076 10.852a22.197 22.197 0 0 1 .724 1.592c.32.37.539.892.868 1.447.303.72.641 1.047 1.014 1.592.479.332 1.124.964 1.736 1.301.652.558 1.264.785 1.736 1.158.682.29 8.308 5.11 8.662 5.352.696.56 2.824 2.764 1.33 4.367-.634.542-1.204 1.26-1.745 1.567-.552.552-1.319.799-1.952 1.085-3.436 1.015-5.186.651-5.861.651h-.724m-45.126-58.419c.976.382.582.1 1.461.5.59.259.98.266 1.56.477.616.198 2.338.508 3.164 1.338.607.548 1.07 1.011 1.737 1.411.788.544 1.357.786 2.334 1.194.825.308 1.747.65 2.58.68.867.05 1.074.007 1.905.007h2.027-2.027 2.027" font-size="12" fill="none" stroke="#000" stroke-width="1.1204094"/><path d="M247.796 172.93c2.17-.144 5.786.507 5.859.507l4.775-.072c2.508-.242 3.062-1.206 3.472-1.882.94-1.446 1.592-1.953 2.316-3.037 1.157-.869 2.75 1.157 2.822 1.157 4.05 3.834.795 8.536.578 8.68-2.026 1.858-2.46 1.978-3.69.796-1.23-1.447-1.591-2.097-2.604-2.604-1.953-.94-6.005-.217-6.078-.217-.072 0-2.097.796-2.097.796-.99.362-1.616 1.23-3.328 1.519-1.736.121-2.315-.048-3.183-1.446-1.158-1.809-.58-3.98 1.158-4.196z" font-size="12" fill="#ffe606" fill-rule="evenodd" stroke="#000" stroke-width="1.1204094"/><path d="M361.078 85.175c-.318.062-3.183 1.438-3.133 1.527.05.089-2.459 6.899-2.509 6.81-.05-.09-1.799-5.914-1.977-5.814-.179.1-6.237.807-6.326.857-.089.05 4.571-5.856 4.571-5.856l-.628-6.337 4.948 1.913s5.257-4.012 5.346-4.062c.089-.05-1.383 5.473-1.383 5.473l2.652 3.673s-1.483 1.537-1.561 1.816z" font-size="12" fill="#f9dd16" fill-opacity=".988" fill-rule="evenodd" stroke="#000" stroke-width="1.1204094"/><path d="M301.67 154.943c3.65 2.408 25.828 7.055 29.15 7.535 4.206-.398 10.107.13 14.54 1.6 4.239 1.847 8.564 1.765 11.46-.445 3.934-2.164 5.364-5.856 7.135-9.152.677-1.742.707-3.59-.026-5.126-1.306-3.261-.523-4.056-.798-5.9 4.783-10.567 5.773-22.874 6.918-31.98-.145-5.313.413-9.378 1.044-11.018 2.536-3.903 6.236-5.528 8.103-6.238l20.695-5.353c5.357-1.955 1.857-5.597.747-5.275-3.578-.52-3.439-4.376-20.192-.356l-10.767-1.372s-2.088-1.682-2.305-1.56c-5.818-1.073-6.673 2.715-6.334 4.99l.799 4.976s-2.09 7.458-1.968 7.675c-5.324 5.98-13.25 25.179-13.757 28.869-.24 3.466-1.55 2.84-1.198 6.21.013 2.633-.293.99.586 6.415.214 1.633-1.782 1.507-2.927 1.035-9.76-6.12-19.027-10.112-29.21-15.524l-1.6-.814-15.652 12.798 2.94 16.911c.921.456 1.744.732 2.616 1.099z" font-size="12" fill="#fff" fill-rule="evenodd" stroke="#000" stroke-width="1.2998568000000001"/><path d="M386.433 91.754c-.204.055-6.748-7.826-6.748-7.826s3.832-.805 3.857-.76l7.544 7.26-4.653 1.326z" font-size="12" fill="#f9dd16" fill-rule="evenodd"/><path d="M366.228 133.24c-5.456.837-11.666-1.862-14.427-4.468" font-size="12" fill="none" stroke="#000" stroke-width="1.1204094"/><path d="M386.69 92.025c-.48-.477-2.63-2.582-3.156-3.251a33.947 33.947 0 0 0-1.931-1.959c-.666-.768-1.135-1.22-1.806-2.03-.667-.554-1.243-1.148-1.845-1.804m15.062 7.58c-.139-.017-1.004-.319-1.502-.605-.444-.416-2.152-1.734-2.634-2.325a27.597 27.597 0 0 0-1.793-1.71c-.613-.677-1.05-1.07-1.666-1.784-.624-.479-1.16-.998-1.715-1.573" font-size="12" fill="none" stroke="#000" stroke-width="1.2389915999999999"/><path d="M353.7 107.972l.07.126c-.221-.395-.118-.134.844.024.616-.098 2.656.886 3.341 2.105.394.553.965 1.421 1.296 2.01.095.168.099.47.193.639m20.308-19.386l-.07-.126-.284-.504c-.368-.654-.62-1.376-.938-1.963-.355-.63-.53-1.362-.885-1.993-.268-.687-.728-1.437-1.005-2.149-.39-.752-.578-1.427-1.01-2.195-.325-.633-.409-1.025-.795-1.712l.795 1.712c-.325-.633-.409-1.025-.795-1.712m22.784 6.28c-.136-.013-.973-.263-1.45-.513-.42-.374-2.046-1.546-2.498-2.081a23.74 23.74 0 0 0-1.694-1.537c-.577-.611-.99-.963-1.568-1.609-.595-.426-1.1-.893-1.623-1.41m-19.729 7.664c1.236-.225 1.237-.834 1.576-1.277.246-.575.428-1.795.095-3.373a16.34 16.34 0 0 1-.347-1.797c-.185-.417-.196-.668-.244-1.025m-11.01 78.729l-.071-.126c.222.395.114.143-.789-.221-.688-.152-1.087-.378-1.772-.497m7.025-12.374c-.048-.084-7.78-5.282-8.997-5.617-.706-.325-1.36-.505-2.186-.918-.465-.302-.924-.448-1.396-.71-.67-.062-1.206-.333-1.783-.325-.636-.228-.947.198-1.615.099-.572.097-1.554.228-2.049.37m.231-12.288c.239-.186 1.13-.483 1.735-.837.723-.374 3.427-.694 4.7.041" font-size="12" fill="none" stroke="#000" stroke-width="1.1204094"/><path d="M352.9 141.368c-.024-.042-.285-1.348-.755-3.512-.45-2.67-.137-8.927.006-9.61.105-.676-.036-1.698.22-2.264.152-.746.446-1.395.68-2.042.302-.777.556-1.437.874-1.986.35-2.042 6.105-10.244 6.481-10.615a22.198 22.198 0 0 1 1.033-1.41c.165-.462.515-.908.836-1.466.479-.617.599-1.073.89-1.664.056-.58.29-1.453.285-2.151.166-.842.065-1.487.158-2.082-.081-.736.383-9.746.42-10.173.146-.881 1.025-3.816 3.155-3.3.783.287 1.689.433 2.22.754.752.21 1.344.758 1.903 1.17 2.57 2.497 3.11 4.2 3.44 4.79l.355.63m-28.845 67.675l-.07-.126c.19.34.085.17-.158-.576-.065-.641-.263-1.51-.362-2.12-.13-.633-.427-1.355-.347-1.797-.227-.644-.083-1.175-.023-1.813.18-.797.262-1.374.284-2.151.088-.954.017-1.63.071-2.53-.25-.742-.302-1.363-.685-2.105-.34-.708-.601-1.364-1.009-2.089l-.993-1.766.994 1.767-.994-1.767" font-size="12" fill="none" stroke="#000" stroke-width="1.1204094"/><path d="M354.828 159.873c-1.19-1.82-2.395-5.293-2.43-5.355 0-.002-2.403-4.127-2.403-4.127-1.44-2.068-2.552-2.079-3.342-2.105-1.721-.111-2.483-.43-3.783-.53-1.324-.583-.339-2.964-.374-3.027 1.357-5.41 7.052-4.876 7.284-4.758 2.611.855 2.929 1.175 2.502 2.826-.66 1.782-1.049 2.415-.994 3.546.137 2.164 2.753 5.34 2.79 5.404.035.063 1.72 1.439 1.72 1.439.8.685 1.865.805 2.956 2.156.956 1.454 1.092 2.042.299 3.484-1.01 1.895-3.185 2.455-4.225 1.047z" font-size="12" fill="#f9dd16" fill-rule="evenodd" stroke="#000" stroke-width="1.1204094"/><path d="M238.862 224.504c.121-.366.365-4.14.243-4.14s-5.722-6.574-5.6-6.574c.122 0 7.183 1.583 7.183 1.339 0-.243 2.8-6.939 2.8-7.061 0-.121 3.409 8.157 3.409 8.157l6.939 3.044-4.87 4.017s1.096 7.792 1.096 7.914c0 .121-4.87-4.627-4.87-4.627l-5.357.609s-.73-2.435-.973-2.678z" fill="#f9dd16" fill-opacity=".988" fill-rule="evenodd" stroke="#000" stroke-width="1pt" transform="matrix(-.38723 .74584 -.74584 -.38723 480.42 18.367)"/><path d="M201.141 122.196c-4.626 2.382-22.38 22.676-24.815 25.841-2.04 4.595-6.03 10.408-10.14 14.15-4.387 3.319-6.825 7.853-6.221 12.146-.049 5.342 2.946 8.979 5.332 12.738 1.412 1.717 3.312 2.827 5.332 2.962 4.144.547 4.512 1.823 6.586 2.613 8.17 11.124 20.358 19.327 29.136 25.825 5.595 2.949 9.486 5.898 10.819 7.508 2.57 4.907 2.097 9.692 1.745 12.043l-6.517 24.588c-1.096 6.696 4.723 5.19 5.036 3.851 2.626-3.409 6.545-1.015 12.145-20.737l7.702-10.368s2.963-1.185 2.963-1.481c4.505-5.409 1.075-8.505-1.482-9.479l-5.628-2.074s-6.517-6.517-6.813-6.517c-3.097-9.009-18.39-28.426-21.921-31.104-3.456-2.271-2.043-3.264-5.743-4.865-2.739-1.522-.855-.881-6.995-3.133-1.819-.73-.524-2.727.633-3.64 12.04-6.554 21.584-13.838 33.137-21.244l1.777-1.185-4.147-23.698-19.255-6.814c-1.01.691-1.777 1.383-2.666 2.074z" fill="#fff" fill-rule="evenodd" stroke="#000" stroke-width="1.547" transform="matrix(-.38723 .74584 -.74584 -.38723 480.42 18.367)"/><path d="M212.096 84.77c.157.14-2.851 9.931-2.851 9.931s-2.772-2.765-2.749-2.81l1.942-10.289 3.658 3.167z" fill="#f9dd16" fill-rule="evenodd"/><path d="M186.004 201.816c2.313-6.148 8.734-11.016 13.047-12.359" fill="none" stroke="#000" stroke-width="1pt" transform="matrix(-.38723 .74584 -.74584 -.38723 480.42 18.367)"/><path d="M216.821 247.074c.774-.218 4.211-1.221 5.212-1.377 1.068-.25 2.131-.53 3.158-.861 1.185-.242 1.927-.465 3.158-.689.964-.368 1.917-.62 2.948-.861m-16.647 11.202c.1-.134.917-.856 1.504-1.205.691-.218 3.054-1.221 3.948-1.377.954-.25 1.903-.53 2.82-.861 1.059-.242 1.721-.465 2.821-.689.861-.368 1.712-.62 2.632-.861" font-size="12" fill="none" stroke="#000" stroke-width="1.474" transform="matrix(-.38723 .74584 -.74584 -.38723 480.42 18.367)"/><path d="M219.519 203.556h-.172c.539 0 .208-.045-.517.861-.258.696-2.468 2.238-4.132 2.238-.803.086-2.037.172-2.841.172-.229 0-.545-.172-.775-.172m8.265 32.369H220.207c.893 0 1.789.159 2.583.172.861 0 1.722.244 2.583.244.869.123 1.916.083 2.815.211 1.008.034 1.817.233 2.866.233.846.032 1.302.173 2.239.173l-2.239-.173c.846.032 1.302.173 2.239.173m-19.8 19.971c.092-.134.84-.856 1.377-1.205.633-.218 2.797-1.221 3.616-1.377.873-.25 1.742-.53 2.582-.861.97-.242 1.576-.465 2.583-.689.789-.368 1.568-.62 2.41-.861m3.555-24.933c-.487 1.414.144 1.769.405 2.379.454.591 1.613 1.492 3.444 2.066.706.19 1.249.376 2.066.689.541.05.807.185 1.205.344m-75.239-57.333h.172c-.54 0-.216.035.689-.689.559-.625 1.026-.908 1.549-1.549m8.738 14.503c.115 0 10.016-4.99 11.073-6.056.749-.543 1.316-1.116 2.227-1.733.584-.305 1.003-.696 1.55-1.033.455-.659 1.049-1.057 1.377-1.66.608-.527.347-1.098.84-1.733.233-.65.669-1.745.811-2.34m12.61 7.405c.054.356-.158 1.453-.143 2.288-.034.968-1.279 3.958-2.784 4.851" fill="none" stroke="#000" stroke-width="1pt" transform="matrix(-.38723 .74584 -.74584 -.38723 480.42 18.367)"/><path d="M185.345 183.251c.058 0 1.565.49 4.084 1.265 3.032 1.09 9.338 5.064 9.964 5.611.639.503 1.782.952 2.22 1.549.685.592 1.187 1.275 1.722 1.894.629.767 1.165 1.416 1.549 2.066 1.915 1.553 7.066 12.306 7.231 12.913.289.568.647 1.359.861 1.894.382.44.641 1.062 1.033 1.722.36.856.763 1.246 1.206 1.894.57.396 1.338 1.148 2.066 1.549.776.664 1.504.934 2.066 1.378.812.345 9.886 6.081 10.307 6.368.829.666 3.36 3.289 1.583 5.197-.754.645-1.433 1.499-2.077 1.864-.656.657-1.569.951-2.323 1.291-4.088 1.208-6.17.775-6.974.775h-.861m-53.373-69.385h.172c-.465 0-.227-.011.689.172.703.308 1.719.609 2.41.861.733.235 1.655.348 2.066.689.8.14 1.268.598 1.894 1.033.722.652 1.273 1.073 2.066 1.549.938.647 1.68.968 2.583 1.55.916.172 1.59.481 2.582.516.934.06 1.766.172 2.755.172h2.411-2.411 2.411m35.984-26.686h-.345c.637 0 .458-.023-.516.172-1.017.525-2.371.922-3.272 1.377-1.028.34-2.133.717-3.099 1.206-1.094.641-2.102 1.162-3.099 1.893-.991.531-1.965 1.185-2.927 1.722-.959.521-1.751 1.024-2.582 1.722-.694.385-1.637.93-2.411 1.549-.727.261-1.252.779-1.721 1.206-.911.807-1.469 1.226-2.411 2.066-.495.468-1.153 1.018-1.894 1.721-.778.519-1.62 1.517-2.238 2.066-.396.517-.976 1.132-1.549 1.55-.441.555-.952 1.285-1.55 1.722-.355.528-.976 1.216-1.55 1.894-.465.569-1.105 1.142-1.549 1.721-.598.662-1.056 1.329-1.722 1.894-.119.398-.369.604-.516.861" fill="none" stroke="#000" stroke-width="1pt" transform="matrix(-.38723 .74584 -.74584 -.38723 480.42 18.367)"/><path d="M165.027 174.459c2.582-.172 6.886.603 6.972.603l5.682-.086c2.985-.288 3.644-1.435 4.132-2.239 1.119-1.721 1.894-2.324 2.755-3.615 1.377-1.033 3.272 1.377 3.358 1.377 4.82 4.563.946 10.158.688 10.33-2.41 2.21-2.927 2.353-4.39.947-1.464-1.722-1.894-2.496-3.099-3.099-2.324-1.119-7.145-.258-7.232-.258-.086 0-2.496.947-2.496.947-1.177.43-1.923 1.464-3.96 1.807-2.066.144-2.755-.057-3.788-1.721-1.377-2.152-.689-4.735 1.378-4.993z" fill="#f9dd16" fill-rule="evenodd" stroke="#000" stroke-width="1pt" transform="matrix(-.38723 .74584 -.74584 -.38723 480.42 18.367)"/><path d="M279.482 125.328c-.796-.723 14.975 5.714 17.145 5.788 2.967-1.086 15.193-11.43 15.193-11.43.12 1.012.554 3.64 1.735 4.196-4.726 3.834-9.018 7.523-13.744 11.357.338 6.077-.771 12.516 2.315 19.316 0 0-3.69.072-3.69 0-3.255-3.255-4.413-18.954-4.413-18.954-5.184-2.315-10.37-4.557-15.554-6.872.748-.483 1.35-1.978 1.013-3.401z" font-size="12" fill="#f9dd16" fill-opacity=".987" fill-rule="evenodd" stroke="#000" stroke-width="1.1204094"/><path d="M294.488 141.42c.251-.183-2.845 1.439-3.64 1.846-14.329 7.643-21.702 18.761-22.162 19.181-.248.474-.703 1.106-1.12 1.725-.337.518-.819 1.055-1.136 1.58-.44.608-1.362 1.809-1.866 2.342-.063.343.239-.118.14.11m39.574-35.867c-.278-.14 2.58 1.871 3.306 2.392 13.35 9.246 26.61 10.718 27.194 10.934.535.004 1.305.12 2.046.208.615.061 1.313.244 1.925.287.741.112 2.23.383 2.936.588.333-.101-.214-.158.034-.176" font-size="12" fill="none" stroke="#000" stroke-width="1.1204094"/></svg>