<svg height="300" width="600" xmlns="http://www.w3.org/2000/svg" xmlns:xlink="http://www.w3.org/1999/xlink"><path d="m0 0h600v300h-600z" fill="#fff" fill-rule="evenodd"/><path id="a" d="m600 260.881c-6.723 4.045-12.5 13.498-30.36 13.498-35.71 0-44.641-19.902-71.427-19.902-17.856 0-26.785 19.902-44.641 19.902-35.715 0-44.643-19.902-71.429-19.902-17.857 0-26.786 19.902-44.643 19.902-35.714 0-44.643-19.902-71.428-19.902-17.858 0-26.786 19.902-44.643 19.902-35.714 0-44.643-19.902-71.429-19.902-17.858 0-26.786 19.902-44.643 19.902-35.714 0-44.643-19.902-71.428-19.902-17.858 0-23.215 14.182-33.929 14.182v25.621c10.714 0 16.071-14.181 33.929-14.181 26.785 0 35.714 19.901 71.428 19.901 17.857 0 26.785-19.9 44.643-19.9 26.785 0 35.715 19.901 71.429 19.901 17.857 0 26.785-19.901 44.643-19.901 26.785 0 35.714 19.901 71.428 19.901 17.857 0 26.786-19.901 44.643-19.901 26.786 0 35.714 19.901 71.429 19.901 17.856 0 26.785-19.901 44.64-19.901 26.788-.001 35.718 19.9 71.428 19.9 17.86 0 23.637-5.64 30.36-9.684v-29.436z" fill="#002b7f" fill-rule="evenodd" stroke-width="1pt"/><use height="300" transform="translate(0 49.753)" width="600" xlink:href="#b"/><use id="b" height="300" transform="translate(0 -99.507)" width="600" xlink:href="#a"/><path id="c" d="m266.072 130.838c26.785 0 35.714 19.902 71.428 19.902 17.857 0 26.786-19.902 44.643-19.902 26.786 0 35.714 19.902 71.429 19.902 17.856 0 26.785-19.902 44.64-19.902 26.787 0 35.717 19.902 71.428 19.902 17.86 0 23.637-5.64 30.36-9.685v-29.434c-6.723 4.045-12.5 13.497-30.36 13.497-35.71 0-44.641-19.901-71.427-19.901-17.856 0-26.785 19.901-44.641 19.901-35.715 0-44.643-19.901-71.429-19.901-17.857 0-26.786 19.901-44.643 19.901-35.714 0-44.643-19.901-71.428-19.901" fill="#002b7f" fill-rule="evenodd" stroke-width="1pt"/><use height="300" transform="translate(0 -49.754)" width="600" xlink:href="#c"/><use height="300" transform="translate(0 -99.507)" width="600" xlink:href="#c"/><g transform="matrix(.5 0 0 .5 0 154.722)"><path id="d" d="m0-309.444h600v300h-600z" fill="#fff" fill-rule="evenodd"/><path id="e" d="m-238.29 473.04-.214-94.3 81.772 46.965z" fill="#002b7f" fill-rule="evenodd" transform="matrix(2.84937 0 0 2.44966 679.586 -1202.729)"/><use height="600" transform="matrix(-1 0 0 1 600 0)" width="600" xlink:href="#e"/><use id="f" height="600" transform="matrix(0 -.50215 2.01732 0 621.65 -9.444)" width="600" xlink:href="#e"/><use height="600" transform="matrix(1 0 0 -1 0 -318.889)" width="600" xlink:href="#f"/></g><path d="m177.64 50h22.36l100-50h-22.36zm-177.64-50v11.18l77.64 38.82h22.36zm300 150v-11.18l-77.64-38.82h-22.36zm-300 0h22.36l100-50h-22.36z" fill="#ce1126" fill-rule="evenodd"/><g transform="scale(.5)"><use id="g" height="300" transform="matrix(1 0 0 .33333 0 203.148)" width="600" xlink:href="#d"/><use height="300" transform="matrix(0 .5 -1 0 450 0)" width="600" xlink:href="#g"/></g><path id="h" d="m0 60h300v30h-300z" fill="#ce1124" fill-rule="evenodd"/><use height="300" transform="matrix(0 .5 -1 0 225 0)" width="600" xlink:href="#h"/><g fill-rule="evenodd" transform="scale(.60476)"><path d="m814.961-301.181-17.717 708.661c0 37.298 80.097 37.298 88.583 0l-17.717-708.661z" fill="#a24300" stroke="#fff" stroke-width="6.9349" transform="matrix(.2 0 0 .475 575.166 274.565)"/><g transform="matrix(-.228082652 .065332035 -.10029516 -.188942613 960.9654944 274.0490689)"><path d="m673.228 325.161 17.717 70.866 35.433-53.15-17.717 88.583 35.433-35.433-35.433 88.582 35.433-35.433-35.433 88.583 35.433-35.433-35.433 106.3 35.433-35.434-35.433 106.3 35.433-35.434-35.433 106.3-17.716 53.15-17.717 17.72-17.716-17.72-17.716-53.15-35.434-106.3 35.433 35.433-35.433-106.299 35.433 35.433-35.433-106.299 35.433 35.433-35.433-88.583 35.433 35.433-35.433-88.582 35.433 35.433-17.716-88.583 35.433 53.15z" fill="#006d00" stroke="#fff" stroke-width="8.25"/><g fill="none" stroke="#000" stroke-width="1pt"><path d="m673.228 325.161v496.067m-70.865-177.17 70.865 106.3 70.866-106.3"/><path d="m602.362 573.192 70.866 106.3 70.866-106.3"/><path d="m602.362 502.326 70.866 106.3 70.866-106.3"/><path d="m602.362 449.176 70.866 88.583 70.866-88.583"/><path d="m602.362 396.027 70.866 88.582 70.866-88.582"/><path d="m620.079 342.877 53.15 106.3 53.15-106.3"/></g></g><g transform="matrix(.171524304 -.175626966 .213904992 .141830022 459.1959884 168.9539074)"><path d="m673.228 325.161 17.717 70.866 35.433-53.15-17.717 88.583 35.433-35.433-35.433 88.582 35.433-35.433-35.433 88.583 35.433-35.433-35.433 106.3 35.433-35.434-35.433 106.3 35.433-35.434-35.433 106.3-17.716 53.15-17.717 17.72-17.716-17.72-17.716-53.15-35.434-106.3 35.433 35.433-35.433-106.299 35.433 35.433-35.433-106.299 35.433 35.433-35.433-88.583 35.433 35.433-35.433-88.582 35.433 35.433-17.716-88.583 35.433 53.15z" fill="#006d00" stroke="#fff" stroke-width="8.25"/><g fill="none" stroke="#000" stroke-width="1pt"><path d="m673.228 325.161v496.067m-70.865-177.17 70.865 106.3 70.866-106.3"/><path d="m602.362 573.192 70.866 106.3 70.866-106.3"/><path d="m602.362 502.326 70.866 106.3 70.866-106.3"/><path d="m602.362 449.176 70.866 88.583 70.866-88.583"/><path d="m602.362 396.027 70.866 88.582 70.866-88.582"/><path d="m620.079 342.877 53.15 106.3 53.15-106.3"/></g></g><g transform="matrix(.109969328 .208888044 -.24141908 .10424463 860.2112828 -54.193157)"><path d="m673.228 325.161 17.717 70.866 35.433-53.15-17.717 88.583 35.433-35.433-35.433 88.582 35.433-35.433-35.433 88.583 35.433-35.433-35.433 106.3 35.433-35.434-35.433 106.3 35.433-35.434-35.433 106.3-17.716 53.15-17.717 17.72-17.716-17.72-17.716-53.15-35.434-106.3 35.433 35.433-35.433-106.299 35.433 35.433-35.433-106.299 35.433 35.433-35.433-88.583 35.433 35.433-35.433-88.582 35.433 35.433-17.716-88.583 35.433 53.15z" fill="#006d00" stroke="#fff" stroke-width="8.25"/><g fill="none" stroke="#000" stroke-width="1pt"><path d="m673.228 325.161v496.067m-70.865-177.17 70.865 106.3 70.866-106.3"/><path d="m602.362 573.192 70.866 106.3 70.866-106.3"/><path d="m602.362 502.326 70.866 106.3 70.866-106.3"/><path d="m602.362 449.176 70.866 88.583 70.866-88.583"/><path d="m602.362 396.027 70.866 88.582 70.866-88.582"/><path d="m620.079 342.877 53.15 106.3 53.15-106.3"/></g></g><g transform="matrix(-.151943904 .188462826 -.22822044 -.124277295 1029.7804476 145.853098)"><path d="m673.228 325.161 17.717 70.866 35.433-53.15-17.717 88.583 35.433-35.433-35.433 88.582 35.433-35.433-35.433 88.583 35.433-35.433-35.433 106.3 35.433-35.434-35.433 106.3 35.433-35.434-35.433 106.3-17.716 53.15-17.717 17.72-17.716-17.72-17.716-53.15-35.434-106.3 35.433 35.433-35.433-106.299 35.433 35.433-35.433-106.299 35.433 35.433-35.433-88.583 35.433 35.433-35.433-88.582 35.433 35.433-17.716-88.583 35.433 53.15z" fill="#006d00" stroke="#fff" stroke-width="8.25"/><g fill="none" stroke="#000" stroke-width="1pt"><path d="m673.228 325.161v496.067m-70.865-177.17 70.865 106.3 70.866-106.3"/><path d="m602.362 573.192 70.866 106.3 70.866-106.3"/><path d="m602.362 502.326 70.866 106.3 70.866-106.3"/><path d="m602.362 449.176 70.866 88.583 70.866-88.583"/><path d="m602.362 396.027 70.866 88.582 70.866-88.582"/><path d="m620.079 342.877 53.15 106.3 53.15-106.3"/></g></g><g transform="matrix(-.150638544 -.160996578 .171277736 -.146521965 702.4418472 394.9042987)"><path d="m673.228 325.161 17.717 70.866 35.433-53.15-17.717 88.583 35.433-35.433-35.433 88.582 35.433-35.433-35.433 88.583 35.433-35.433-35.433 106.3 35.433-35.434-35.433 106.3 35.433-35.434-35.433 106.3-17.716 53.15-17.717 17.72-17.716-17.72-17.716-53.15-35.434-106.3 35.433 35.433-35.433-106.299 35.433 35.433-35.433-106.299 35.433 35.433-35.433-88.583 35.433 35.433-35.433-88.582 35.433 35.433-17.716-88.583 35.433 53.15z" fill="#006d00" stroke="#fff" stroke-width="8.25"/><g fill="none" stroke="#000" stroke-width="1pt"><path d="m673.228 325.161v496.067m-70.865-177.17 70.865 106.3 70.866-106.3"/><path d="m602.362 573.192 70.866 106.3 70.866-106.3"/><path d="m602.362 502.326 70.866 106.3 70.866-106.3"/><path d="m602.362 449.176 70.866 88.583 70.866-88.583"/><path d="m602.362 396.027 70.866 88.582 70.866-88.582"/><path d="m620.079 342.877 53.15 106.3 53.15-106.3"/></g></g><g transform="matrix(-.262652936 -.061979757 -.15214696 .197977563 1088.559358 26.336287)"><path d="m744.095 425.197 28.643 70.866 42.223-53.15-10.184 88.583 27.9-35.433-17.716 88.582 25.249-35.433-25.25 88.583 35.434-35.433-35.434 106.298 35.433-35.433-35.433 106.299 35.433-35.433-35.433 106.299-17.716 53.15-17.717 17.72-17.717-17.72-17.716-53.15-35.433-106.3 35.433 35.434-35.433-106.3 35.433 35.434-35.433-106.3 35.433 35.434-45.617-88.583 45.617 35.433-53.15-88.582 42.966 35.433-25.25-88.583 35.433 53.15v-70.866z" fill="#006d00" stroke="#fff" stroke-width="8.25"/><g fill="none" stroke="#000" stroke-width="1pt"><path d="m750.673 460.63 28.855 124.016v336.618"/><path d="m719.695 761.81 59.833 88.583 60.682-88.582"/><path d="m717.998 690.945 61.53 88.582 60.682-88.582"/><path d="m718.846 620.079 60.682 88.582 59.833-88.582"/><path d="m716.3 566.929 63.228 70.866 53.149-70.866"/><path d="m708.662 513.78 70.866 70.865 45.406-70.865"/><path d="m719.589 469.222 53.15 86.886 35.327-95.478"/></g></g><g transform="matrix(.261710176 .064870941 .009579892 .237108243 530.4062772 -107.6526446)"><path d="m744.095 425.197 28.643 70.866 42.223-53.15-10.184 88.583 27.9-35.433-17.716 88.582 25.249-35.433-25.25 88.583 35.434-35.433-35.434 106.298 35.433-35.433-35.433 106.299 35.433-35.433-35.433 106.299-17.716 53.15-17.717 17.72-17.717-17.72-17.716-53.15-35.433-106.3 35.433 35.434-35.433-106.3 35.433 35.434-35.433-106.3 35.433 35.434-45.617-88.583 45.617 35.433-53.15-88.582 42.966 35.433-25.25-88.583 35.433 53.15v-70.866z" fill="#006d00" stroke="#fff" stroke-width="8.25"/><g fill="none" stroke="#000" stroke-width="1pt"><path d="m750.673 460.63 28.855 124.016v336.618"/><path d="m719.695 761.81 59.833 88.583 60.682-88.582"/><path d="m717.998 690.945 61.53 88.582 60.682-88.582"/><path d="m718.846 620.079 60.682 88.582 59.833-88.582"/><path d="m716.3 566.929 63.228 70.866 53.149-70.866"/><path d="m708.662 513.78 70.866 70.865 45.406-70.865"/><path d="m719.589 469.222 53.15 86.886 35.327-95.478"/></g></g><g transform="matrix(.033453476 -.227269494 .236429704 .04037688 477.335416 340.2372433)"><path d="m797.245 488.53 88.583 88.583 17.716-53.149v88.582l35.433-35.433-17.716 88.583 35.432-35.434-17.716 88.584 35.433-35.433-17.716 106.3 35.433-35.434-35.433 106.3 35.433-35.434-17.717 106.298-17.716 53.151-17.717 17.72-17.717-17.72-17.716-53.15-53.15-82.295 35.434 11.43-35.433-106.3 35.433 35.433-53.15-106.299 35.433 35.433-53.15-88.584 53.15 35.434-70.866-88.583 53.149 35.433-70.866-70.866 70.866 35.433-53.15-88.583z" fill="#006d00" stroke="#fff" stroke-width="8.25"/><g fill="none" stroke="#000" stroke-width="1pt"><path d="m821.876 517.05 63.952 95.496 17.716 53.15 8.859 45.205 8.858 78.811 9.315 70.866 8.4 141.736"/><path d="m868.11 860.578 63.666 70.866 50.749-88.583"/><path d="m859.996 771.995 70.579 88.583 50.75-88.583"/><path d="m850.394 709.477 70.867 80.235 45.948-88.583m-152.249-106.299 88.583 70.866 25.83-70.866"/><path d="m803.532 559.397 82.296 53.15 10.515-53.15m-63.665 88.582 81.095 70.866 33.946-70.866"/></g></g></g><g stroke="#000" transform="matrix(.25333 0 0 .25333 412 157.18)"><path d="m52.504 257.674 98.536-17.68 102.642 17.68-47.626 19.801-87.861 1.415z" fill="#9d9d9d" fill-rule="evenodd" stroke-width="1.007639"/><path d="m151.789 98.445c-17.224 5.987-36.302-8.425-67.36 15.094 0 0-54.143-23.163-58.256 30.37-.165 2.168 8.57 15.224 9.786 14.29 6.804-5.223-3.23 5.073-3.23 6.56 0 1.501.998 2.334 1.335 2.995.33.667 1.163 1.665 1.329 4.494.165 2.828-6.137 10.544-3.474 13.372 2.657 2.829 2.822 10.984 2.822 13.31 0 2.327 1.666 8.817 2.829 10.152 1.163 1.328 3.16 4.653 3.16 7.481 0 2.83 1.162 10.647.66 12.637-.496 1.996 2.994 4.494 6.16 5.492 3.159.998 43.935 1.706 101.162.708 57.233-.998 76.328 8.057 99.974-.543 3.655-1.328 4.322-4.322 3.992-5.988-.337-1.659 0-6.979.998-8.314.998-1.328 7.653-11.975 6.318-13.971 1.256-1.134 10.59 5.39 4.645-.436-1.524-1.493.853-17.216 1.673-20.528.827-3.318 2.096-9.55 3.621-10.706 1.532-1.157-2.598-5.488-2.305-6.27.298-.788 1.41-3.229 2.962-4.341 0 0 2.885-13.527 1.106-20.176-1.767-6.655-8.27-36.583-48.862-30.588 0 0-54.34-20.9-71.045-15.094z" fill="#c00" stroke-width="1.628669"/><g fill-rule="evenodd"><g transform="matrix(1.08578 0 0 1.08578 6.915 26.112)"><g fill="#f7d917"><g stroke-width="1.241115" transform="matrix(.49697 -.0446 .08947 .72677 44.7 100.543)"><path d="m49.75.125c-5.093.89-15.156 29.245-12.61 38.75 1.764 6.58 4.499 11.12 6.047 13.906-3.404-4.685-11.382-13.75-22.25-13.75-13.663 0-15.43 29.948-15.093 31.875.001.007-.002.026 0 .031.001.005.03.028.031.032h.031c.613-.715 6.142-13.094 19.657-13.094 8.896 0 15.829 7.035 18.375 10.031-.001.945.022 1.858.03 2.781-2.003 2.829-3.28 9.532-9.468 17.97-7.477 10.194-30.372 11.239-34.22 11.343h49.532c.047 0 .109.003.156 0 .022.002.04-.001.062 0 .047.003.11 0 .157 0h49.53c-3.846-.103-27.179-1.148-34.655-11.344-6.188-8.437-7.028-15.14-9.032-17.969.009-.923.032-1.836.032-2.78 2.545-2.997 9.478-10.032 18.374-10.032 13.515 0 19.044 12.38 19.657 13.094h.031c.002-.004.03-.027.031-.031.002-.006-.001-.025 0-.032.337-1.927-1.43-31.875-15.094-31.875-10.867 0-18.845 9.065-22.25 13.75 1.55-2.786 4.29-8.575 5.72-13.906 2.586-9.656-7.44-38.743-12.531-38.75-.08 0-.17-.014-.25 0zm-6.438 52.844c.353.49.663.912.907 1.281.005.008.541 2.977.547 2.984-.003.064 2.627 10.186 2.624 10.25-.264-.392-3.737-13.915-4.078-14.515zm13.376 0c-.341.6-4.033 14.123-4.297 14.515-.003-.064 3.393-13.139 3.39-13.203 0-.01-.437 2.964-.437 2.953.244-.369.991-3.775 1.343-4.265z"/><path d="m42 67.578s4-1.86 8-1.86 8 1.86 8 1.86v4.953s-4-1.86-8-1.86-8 1.86-8 1.86z"/></g><g stroke-width="1.241114" transform="matrix(.49538 .0597 -.0636 .7295 168.919 96.59)"><path d="m49.75.125c-5.093.89-15.156 29.245-12.61 38.75 1.764 6.58 4.499 11.12 6.047 13.906-3.404-4.685-11.382-13.75-22.25-13.75-13.663 0-15.43 29.948-15.093 31.875.001.007-.002.026 0 .031.001.005.03.028.031.032h.031c.613-.715 6.142-13.094 19.657-13.094 8.896 0 15.829 7.035 18.375 10.031-.001.945.022 1.858.03 2.781-2.003 2.829-3.28 9.532-9.468 17.97-7.477 10.194-30.372 11.239-34.22 11.343h49.532c.047 0 .109.003.156 0 .022.002.04-.001.062 0 .047.003.11 0 .157 0h49.53c-3.846-.103-27.179-1.148-34.655-11.344-6.188-8.437-7.028-15.14-9.032-17.969.009-.923.032-1.836.032-2.78 2.545-2.997 9.478-10.032 18.374-10.032 13.515 0 19.044 12.38 19.657 13.094h.031c.002-.004.03-.027.031-.031.002-.006-.001-.025 0-.032.337-1.927-1.43-31.875-15.094-31.875-10.867 0-18.845 9.065-22.25 13.75 1.55-2.786 4.29-8.575 5.72-13.906 2.586-9.656-7.44-38.743-12.531-38.75-.08 0-.17-.014-.25 0zm-6.438 52.844c.353.49.663.912.907 1.281.005.008.541 2.977.547 2.984-.003.064 2.627 10.186 2.624 10.25-.264-.392-3.737-13.915-4.078-14.515zm13.376 0c-.341.6-4.033 14.123-4.297 14.515-.003-.064 3.393-13.139 3.39-13.203 0-.01-.437 2.964-.437 2.953.244-.369.991-3.775 1.343-4.265z"/><path d="m42 67.578s4-1.86 8-1.86 8 1.86 8 1.86v4.953s-4-1.86-8-1.86-8 1.86-8 1.86z"/></g><path d="m24.308 134.56 9.69-11.814s.903 1.168 0 0c-19.866-25.681-20.87-40.415-18.635-47.876 2.236-7.461 6.709-15.544 18.635-25.493 11.926-9.948 20.156-4.419 31.336-4.419 11.181 0 14.163 2.487 23.852 3.73 9.69 1.244 35.778 2.488 35.778 2.488v-6.84s1.029.192 0 0c-11.518-2.147-26.088 0-35.778-2.487s-17.889-3.108-28.324-3.108-17.92-3.043-24.628 1.31c-6.709 4.352-14.908 11.813-20.87 18.031-5.964 6.218-8.946 18.653-8.201 26.736.746 8.083 3.727 14.923 8.2 21.14 4.472 6.218 3.726 11.192 5.217 15.544 1.49 4.353 3.727 13.68 3.727 13.058zm214.947 0-9.69-11.814s-.904 1.168 0 0c19.865-25.681 20.87-40.415 18.634-47.876s-6.708-15.544-18.634-25.493c-11.926-9.948-20.156-4.419-31.337-4.419-11.18 0-14.162 2.487-23.852 3.73-9.69 1.244-35.778 2.488-35.778 2.488v-6.84s-1.029.192 0 0c11.519-2.147 26.088 0 35.778-2.487s17.89-3.108 28.324-3.108c10.436 0 17.92-3.043 24.629 1.31 6.708 4.352 14.907 11.813 20.87 18.031s8.945 18.653 8.2 26.736c-.746 8.083-3.728 14.923-8.2 21.14-4.472 6.218-3.727 11.192-5.217 15.544-1.491 4.353-3.727 13.68-3.727 13.058z" stroke-width=".71481"/><path d="m115.553 38.701h34.563v70.894h-34.563z" stroke-width=".834961"/><g transform="translate(0 -8)"><path d="m119.684-15.8s3.72 3.03 6.575 6.923c2.856 3.893 4.846 8.652 4.846 8.652s-4.759-1.99-8.652-4.846c-3.894-2.855-6.922-6.575-6.922-6.575v26.302s3.028-3.72 6.922-6.575c3.893-2.856 8.652-4.846 8.652-4.846s-1.534 3.927-2.524 8.653c-.891 4.25-8.183 14.064-8.183 14.064l21.303 1.429s-3.542-11.243-4.969-15.493c-1.536-4.578-2.167-8.653-2.167-8.653s4.76 1.99 8.653 4.846c3.893 2.855 6.921 6.575 6.921 6.575v-26.302s-3.028 3.72-6.921 6.575c-3.894 2.856-8.653 4.846-8.653 4.846s1.99-4.759 4.846-8.652c2.855-3.894 6.575-6.922 6.575-6.922h-26.302z" stroke-width=".5"/><path d="m149.978 31.076a17.143 17.143 0 1 1 -34.286 0 17.143 17.143 0 1 1 34.286 0z" stroke-width=".75"/><path d="m116.074 33.535h34.102s.494-6.596-1.974-9.064h-10.595l-.178-9.888h-10.042l-.179 9.888s-7.127.357-10.41.357c-1.49 4.041-1.26 4.38-1.26 4.38z" stroke-width=".5"/></g><path d="m110.877 107.22s6.212 5.057 10.979 11.558c4.767 6.5 8.09 14.446 8.09 14.446s-7.946-3.323-14.446-8.09c-6.501-4.767-11.557-10.979-11.557-10.979v43.916s5.056-6.211 11.557-10.979c6.5-4.767 14.446-8.09 14.446-8.09s-3.323 7.946-8.09 14.447c-4.767 6.5-10.98 11.557-10.98 11.557h43.917s-6.212-5.057-10.979-11.557c-4.767-6.501-8.09-14.447-8.09-14.447s7.946 3.323 14.446 8.09c6.501 4.768 11.557 10.98 11.557 10.98v-43.917s-5.056 6.212-11.557 10.98c-6.5 4.766-14.446 8.089-14.446 8.089s3.323-7.945 8.09-14.446 10.98-11.557 10.98-11.557h-43.917zm-83.637 74.56 21.625-3.813s-6.995-3.9-12.82-9.475c-5.823-5.574-10.475-12.822-10.475-12.822s8.402 1.892 15.632 5.458 13.288 8.806 13.288 8.806l-7.626-43.25s-3.9 6.996-9.475 12.82c-5.574 5.824-12.822 10.475-12.822 10.475s1.892-8.401 5.458-15.631 8.806-13.288 8.806-13.288l-21.625 3.813zm199.6-60.72s5.239 6.058 8.805 13.288 5.458 15.631 5.458 15.631-7.248-4.651-12.822-10.475-9.475-12.82-9.475-12.82l-7.626 43.25s6.058-5.24 13.288-8.806 15.632-5.458 15.632-5.458-4.652 7.248-10.476 12.822c-5.823 5.574-12.819 9.475-12.819 9.475l21.625 3.813 10.034-56.907-21.625-3.813z" stroke-width=".75"/><path d="m27.464 179.533.15 31.506s52.648-17.928 105.296-17.928 105.296 17.928 105.296 17.928v-31.506s-52.685-17.929-105.37-17.929c-52.687 0-105.372 17.929-105.372 17.929z" stroke-width=".75"/></g><g fill="#fff" stroke-width=".991845"><path d="m22.582 117.786a8.015 8.015 0 1 1 -16.03 0 8.015 8.015 0 1 1 16.03 0z"/><path d="m12.301 99.505a8.015 8.015 0 1 1 -16.03 0 8.015 8.015 0 1 1 16.03 0z"/><path d="m10.158 78.076a8.015 8.015 0 1 1 -16.03 0 8.015 8.015 0 1 1 16.03 0z"/><path d="m16.587 58.076a8.015 8.015 0 1 1 -16.03 0 8.015 8.015 0 1 1 16.03 0z"/><path d="m30.158 41.648a8.015 8.015 0 1 1 -16.03 0 8.015 8.015 0 1 1 16.03 0z"/><path d="m48.73 30.22a8.015 8.015 0 1 1 -16.031 0 8.015 8.015 0 1 1 16.03 0z"/><path d="m69.444 31.648a8.015 8.015 0 1 1 -16.03 0 8.015 8.015 0 1 1 16.03 0z"/><path d="m90.158 35.076a8.015 8.015 0 1 1 -16.03 0 8.015 8.015 0 1 1 16.03 0z"/><path d="m110.872 37.22a8.015 8.015 0 1 1 -16.03 0 8.015 8.015 0 1 1 16.03 0z"/><path d="m240.98 117.786a8.015 8.015 0 1 0 16.031 0 8.015 8.015 0 1 0 -16.03 0z"/><path d="m251.261 99.505a8.015 8.015 0 1 0 16.031 0 8.015 8.015 0 1 0 -16.03 0z"/><path d="m253.404 78.076a8.015 8.015 0 1 0 16.031 0 8.015 8.015 0 1 0 -16.03 0z"/><path d="m246.976 58.076a8.015 8.015 0 1 0 16.03 0 8.015 8.015 0 1 0 -16.03 0z"/><path d="m233.404 41.648a8.015 8.015 0 1 0 16.031 0 8.015 8.015 0 1 0 -16.03 0z"/><path d="m214.833 30.22a8.015 8.015 0 1 0 16.03 0 8.015 8.015 0 1 0 -16.03 0z"/><path d="m194.119 31.648a8.015 8.015 0 1 0 16.03 0 8.015 8.015 0 1 0 -16.03 0z"/><path d="m173.404 35.076a8.015 8.015 0 1 0 16.031 0 8.015 8.015 0 1 0 -16.03 0z"/><path d="m152.69 37.22a8.015 8.015 0 1 0 16.03 0 8.015 8.015 0 1 0 -16.03 0z"/><g transform="translate(1.04)"><path d="m139.81 99.786a8.015 8.015 0 1 1 -16.03 0 8.015 8.015 0 1 1 16.03 0z"/><path d="m139.81 85.505a8.015 8.015 0 1 1 -16.03 0 8.015 8.015 0 1 1 16.03 0z"/><path d="m139.81 74.076a8.015 8.015 0 1 1 -16.03 0 8.015 8.015 0 1 1 16.03 0z"/><path d="m139.81 63.648a8.015 8.015 0 1 1 -16.03 0 8.015 8.015 0 1 1 16.03 0z"/><path d="m139.81 30.22a8.015 8.015 0 1 1 -16.03 0 8.015 8.015 0 1 1 16.03 0z"/><path d="m139.81 31.648a8.015 8.015 0 1 1 -16.03 0 8.015 8.015 0 1 1 16.03 0z"/><path d="m139.81 39.076a8.015 8.015 0 1 1 -16.03 0 8.015 8.015 0 1 1 16.03 0z"/><path d="m139.81 49.22a8.015 8.015 0 1 1 -16.03 0 8.015 8.015 0 1 1 16.03 0z"/></g></g><g fill="#fff"><path d="m143.114 134.29a10.357 10.357 0 1 1 -20.714 0 10.357 10.357 0 1 1 20.714 0z"/><path d="m34.857 153.076a10.357 10.357 0 1 1 -20.714 0 10.357 10.357 0 1 1 20.714 0z"/><path d="m250.857 153.076a10.357 10.357 0 1 1 -20.714 0 10.357 10.357 0 1 1 20.714 0z"/></g></g><path d="m134.791 210.096h34.762v15.153h-34.762z" fill="#002b7f" stroke-width=".841412"/><path d="m16.043 233.11a22.995 8.556 0 1 1 -45.99 0 22.995 8.556 0 1 1 45.99 0z" fill="#3e8225" stroke-width="1.5" transform="matrix(-.67815 -.06883 .02383 .9577 195.477 -.83)"/><path d="m36.937 229.285-8.71 8.71 10.102 5.831 23.493-6.294-4.187-13.304zm230.47 0 8.709 8.71-10.102 5.831-23.493-6.294 4.187-13.304 20.698 5.057z" fill="#c00" stroke-width="1.085779"/><path d="m16.043 233.11a22.995 8.556 0 1 1 -45.99 0 22.995 8.556 0 1 1 45.99 0z" fill="#3e8225" stroke-width="1.5" transform="matrix(.67815 -.06883 -.02383 .9577 108.867 -.83)"/><path d="m127.273 211.228a4.278 4.278 0 1 1 -8.556 0 4.278 4.278 0 1 1 8.556 0z" fill="#fff" stroke-width=".7"/><path d="m128.61 224.864a4.278 4.278 0 1 1 -8.557 0 4.278 4.278 0 1 1 8.557 0z" fill="#fff" stroke-width=".7"/><path d="m73.797 220.853a4.278 4.278 0 1 1 -8.556 0 4.278 4.278 0 1 1 8.556 0z" fill="#fff" stroke-width=".7"/><path d="m79.144 233.688a4.278 4.278 0 1 1 -8.556 0 4.278 4.278 0 1 1 8.556 0z" fill="#fff" stroke-width=".7"/><path d="m176.872 211.228a4.278 4.278 0 1 0 8.556 0 4.278 4.278 0 1 0 -8.556 0z" fill="#fff" stroke-width=".7"/><path d="m175.535 224.864a4.278 4.278 0 1 0 8.556 0 4.278 4.278 0 1 0 -8.556 0z" fill="#fff" stroke-width=".7"/><path d="m230.347 220.853a4.278 4.278 0 1 0 8.557 0 4.278 4.278 0 1 0 -8.557 0z" fill="#fff" stroke-width=".7"/><path d="m225 233.688a4.278 4.278 0 1 0 8.556 0 4.278 4.278 0 1 0 -8.556 0z" fill="#fff" stroke-width=".7"/></g><g><path d="m238.538 280.603c3.267-.567 22.977-5.253 27.127-7.76-2.678-4.828-7.484-8.605-3.744-7.018 2.014.855 3.607-5.799-2.24-10.885-16.972 5.567-57.679 15.739-108.828 15.739-52.344 0-93.562-10.707-110.535-16.273-5.846 5.086-4.025 10.864-4.378 13.023-.003.017.003 2.725 1.07 4.88 5.753 6.25 24.393 9.331 27.66 9.899 15.353 2.666 30.706 6.697 86.15 6.697 51.288 0 72.365-5.635 87.718-8.302z" fill="#fff" stroke-width="1.713747"/><g transform="matrix(1.08578 0 0 1.08578 -81.341 -69.111)"><path d="m132.906 289.655c-3.01.523-22.147 7.3-25.969 9.61.004.014-.002.045 0 .06.326 1.99-3.321 11.252 2.063 15.936 15.632-5.127 59.525-20.406 106.634-20.406 48.209 0 88.14 15.279 103.772 20.406 5.384-4.684 1.737-13.947 2.063-15.935.003-.016-.004-.047 0-.061-3.822-2.31-22.96-9.087-25.969-9.61-14.14-2.455-28.772-11.586-79.835-11.586-47.237 0-68.62 9.13-82.759 11.586z" fill="#fff" stroke-width="1.578357"/><g fill-rule="evenodd"><g transform="matrix(1.38439 -.14324 .15642 1.26776 -86.626 -64.755)"><g stroke-width=".79936"><path d="m114.571 301.56a.935.935 0 1 1 -1.87 0 .935.935 0 1 1 1.87 0z"/><path d="m113.235 303.966a.935.935 0 1 1 -1.87 0 .935.935 0 1 1 1.87 0z"/><path d="m115.106 305.57a.935.935 0 1 1 -1.87 0 .935.935 0 1 1 1.87 0z"/></g><path d="m113.518 303.669 8.526-3.166-4.185 2.392 2.686-.083-2.492 1.168 4.001.275z"/></g><g transform="matrix(1.38439 -.14324 .15642 1.26776 -45.032 -76.658)"><g stroke-width=".79936"><path d="m114.571 301.56a.935.935 0 1 1 -1.87 0 .935.935 0 1 1 1.87 0z"/><path d="m113.235 303.966a.935.935 0 1 1 -1.87 0 .935.935 0 1 1 1.87 0z"/><path d="m115.106 305.57a.935.935 0 1 1 -1.87 0 .935.935 0 1 1 1.87 0z"/></g><path d="m113.518 303.669 8.526-3.166-4.185 2.392 2.686-.083-2.492 1.168 4.001.275z"/></g><g transform="matrix(1.37843 .19234 -.15163 1.26835 100.17 -120.86)"><g stroke-width=".79936"><path d="m114.571 301.56a.935.935 0 1 1 -1.87 0 .935.935 0 1 1 1.87 0z"/><path d="m113.235 303.966a.935.935 0 1 1 -1.87 0 .935.935 0 1 1 1.87 0z"/><path d="m115.106 305.57a.935.935 0 1 1 -1.87 0 .935.935 0 1 1 1.87 0z"/></g><path d="m113.518 303.669 8.526-3.166-4.185 2.392 2.686-.083-2.492 1.168 4.001.275z"/></g><g transform="matrix(1.38439 .14324 .15642 -1.26776 54.434 659.458)"><g stroke-width=".79936"><path d="m114.571 301.56a.935.935 0 1 1 -1.87 0 .935.935 0 1 1 1.87 0z"/><path d="m113.235 303.966a.935.935 0 1 1 -1.87 0 .935.935 0 1 1 1.87 0z"/><path d="m115.106 305.57a.935.935 0 1 1 -1.87 0 .935.935 0 1 1 1.87 0z"/></g><path d="m113.518 303.669 8.526-3.166-4.185 2.392 2.686-.083-2.492 1.168 4.001.275z"/></g><g transform="matrix(1.38439 .14324 .15642 -1.26776 96.412 670.42)"><g stroke-width=".79936"><path d="m114.571 301.56a.935.935 0 1 1 -1.87 0 .935.935 0 1 1 1.87 0z"/><path d="m113.235 303.966a.935.935 0 1 1 -1.87 0 .935.935 0 1 1 1.87 0z"/><path d="m115.106 305.57a.935.935 0 1 1 -1.87 0 .935.935 0 1 1 1.87 0z"/></g><path d="m113.518 303.669 8.526-3.166-4.185 2.392 2.686-.083-2.492 1.168 4.001.275z"/></g></g></g></g></g></svg>