<svg xmlns="http://www.w3.org/2000/svg" version="1" width="1200" height="600" viewBox="-15 -7.5 30 15"><defs><clipPath id="a"><path d="M-15-7.5h30v15h-30z"/></clipPath></defs><path fill="#00247D" d="M-15-7.5h30v15h-30z"/><g clip-path="url(#a)" transform="matrix(.5 0 0 .5 -7.5 -3.75)"><circle r="20" fill="#00247D"/><path d="M-20-10l40 20m-40 0l40-20" stroke-width="3" stroke="#fff"/><path d="M-20-10l40 20m-40 0l40-20" stroke-width="2" stroke="#CF142B"/><path fill="#fff" d="M0 0l20 10h-3L-3 0m3 0l20-10h3L3 0M0 0l-20 10h-3L-3 0m3 0l-20-10h3L3 0"/><path d="M-20 0h40M0-10v20" stroke-width="5" stroke="#fff"/><path d="M-20 0h40M0-10v20" stroke-width="3" stroke="#CF142B"/></g><path d="M5.018.454c-.32.272-.625.667-.7 1.025-.21 1.007-.49 1.23-.923 1.014 0 .54.474.582.682.266 0 .508.184.947.599 1.323.175.158.208.05.125-.125-.084-.175-.084-.74-.25-1.064.266.19.657.083.624-.441-.341.2-.68.191-.715-.283-.042-.557.176-1.366.558-1.715zM4.613-3.55c.023-.2-.02-.405-.166-.534-.282-.248-.558-.166-.764.034-.307-.166-.47.424-.82.324.058.191.15.274.324.208-.183.166 0 .366-.216.565.391.125.599-.091.582-.465.15.133.383.124.507-.025-.207-.067-.208-.248-.124-.416.124-.25.71-.24.677.309z" fill="#f7e017" stroke="#000" stroke-width=".01478375"/><path d="M5.516-.658c-.441.232-1.248.133-1.322-.441-.075-.574.482-.832.632-.907.233-.116.415.092.34.333a.378.378 0 0 0 .192-.565c.34.024.657-.233.79-.6-.12.115-.446.038-.714.02.083-.091.082-.269.057-.36-.283.29-.69.158-1.23.998.082-.291.24-.873.332-1.256a.95.95 0 0 0 .02-.115c.034-.549-.552-.559-.677-.31.137.155.065.335.016.608-.058.324-.183 1.073-.29 1.322-.034-.39-.292-.416-.342-.607-.075.05-.116.183-.1.275-.09-.1-.407.024-.523-.125-.125.25.075.499.282.607-.12.008-.15.154-.282.154.179.208.361.29.573.307.213.017.37.096.5.354.207.416 1 .686 1.746.308z" fill="#337321" stroke="#000" stroke-width=".01478375"/><path d="M6.613-1.166C6.364-.476 5.683.015 5.374.09c-.523.127-1.591.646-1.878.913A.336.336 0 0 1 3.38.955C3.237.855 3.12.53 3.37.256c.782-.731 1.622-.415 2.146-.914-.441.232-1.248.133-1.322-.441a2.03 2.03 0 0 0 2.012-.599c.091.1.358.416.407.532z" fill="#f7e017" stroke="#000" stroke-width=".01478375"/><path d="M5.018.454c-.395.335-.6 1.158-.558 1.715.011.155.055.26.12.324.03-.316.25-1.132.811-1.497C5.865.69 6.605 0 6.88-.79a.632.632 0 0 0-.291-.341C6.317-.387 5.588-.03 5.019.454z" fill="#337321" stroke="#000" stroke-width=".01478375"/><path d="M6.36-1.486c-.142.212-.462.503-.77.62a.403.403 0 0 0 .092-.25c-.39.15-1.172.133-1.488.017a2.03 2.03 0 0 0 2.012-.599.826.826 0 0 1 .154.212z" fill="#316d3a" stroke="#000" stroke-width=".01478375"/><path d="M3.37.256c-.635.595-.216 1.115.034 1.231-.067.416.324.366.316.715.158-.091.2-.332.174-.524.2.217.707-.025.815.375.067-.441-.274-.882-.698-.84.174-.158.074-.416-.092-.483-.033.325-.399.325-.54.225C3.237.855 3.12.53 3.37.256z" fill="#337321" stroke="#000" stroke-width=".01478375"/><path d="M4.747 4.04c-.07.04-.065.13-.021.187.087.117-.062.38.22.437.083.016.147-.034.179-.13.087-.261-.191-.29-.216-.415-.025-.125-.104-.112-.162-.079z" fill="#f7e017" stroke="#000" stroke-width=".01478375"/><path d="M4.984 4.53c-.094.044-.175.105-.138.404.016.124.009.424-.1.428.067.034.208.069.267-.008.056.093.183.067.233-.05.066.054.158-.037.158-.116.058.037.174-.017.145-.196.07.025.162-.025.195-.07-.104-.021-.365-.163-.428-.275-.062-.112-.224-.166-.332-.116z" fill="#f7e017" stroke="#000" stroke-width=".01478375"/><path d="M3.543-3.88a1.085 1.085 0 0 1 .14-.17M5.125-2.78c.073-.042.185-.047.309-.039m-.421 8.172c-.03-.042-.04-.216-.019-.322m.252.272a.492.492 0 0 1-.148-.262m.306.146c-.059-.027-.2-.21-.231-.329m.376.133a.824.824 0 0 1-.366-.297" fill="none" stroke="#000" stroke-width=".01478375"/><path d="M9.383.265c1.023.856 1.089 1.538.931 1.937-.083-.374-.507-.956-.948-1.106l.017-.831z" fill="#f7e017" stroke="#000" stroke-width=".01478375"/><path d="M7.553-.218H9.45v2.246c0 1.912-1.064 3.043-2.145 3.642-1.081-.599-2.146-1.73-2.146-3.642V-.218h1.33c.003.117.013.291.15.466.314-.031.67-.266.915-.466z" fill="#337321" stroke="#000" stroke-width=".01478375"/><path d="M9.45-.218v2.246c0 .577-.098 1.083-.263 1.525L7.304.098 5.42 3.553a4.32 4.32 0 0 1-.262-1.525V-.218H9.45z" fill="#006ec7" stroke="#000" stroke-width=".01478375"/><path d="M9.244 3.387a4.124 4.124 0 0 1-.14.37L7.304.41l-1.8 3.346a4.124 4.124 0 0 1-.141-.369L7.303-.21l1.941 3.598z" fill="#f7e017"/><g fill="#f7e017" stroke="#000" stroke-width=".01478375"><path d="M8.16 4.618c.05.025.142.07.183.087.1-.2.117-.482.083-.732-.108.275-.474.267-.573.433.061.03.118.07.167.106-.125.125-.417.335-.583.385V3.113c0-.125-.042-.229-.042-.333v-.369c0-.083-.016-.203-.091-.203s-.092.12-.092.203v.37c0 .103-.041.224-.041.332v1.784c-.092-.267-.45-.175-.616-.442a.472.472 0 0 1 .2-.007c-.125-.425-.466-.458-.532-.583 0 .175-.075.583.041.757a.463.463 0 0 1 .113-.092c.141.308.777.308.927.816.12-.187.553-.403.856-.728z"/><path d="M7.304 3.134c.141 0 .59-.046.752-.046.042 0 .077-.064.077-.141 0-.079-.035-.142-.077-.142-.162 0-.611-.046-.752-.046-.142 0-.59.046-.753.046-.042 0-.076.064-.076.142 0 .077.034.14.076.14.162 0 .611.047.753.047z"/><path d="M7.213 2.403a.18.18 0 0 0-.113-.04c-.094 0-.17.07-.17.157s.076.155.17.155c.094 0 .17-.07.17-.155 0-.067.097-.067.097 0 0 .134-.12.244-.267.244s-.267-.11-.267-.244c0-.135.12-.244.267-.244.044 0 .086.01.123.027-.004.022-.01.064-.01.1zm-.662.685c.042 0 .077-.064.077-.141 0-.079-.035-.142-.077-.142"/><path d="M6.614 3.088c.042 0 .076-.064.076-.141 0-.079-.034-.142-.076-.142m.41.312c.051 0 .093-.077.093-.17 0-.094-.042-.17-.093-.17m.096.347c.053 0 .096-.08.096-.177 0-.099-.043-.178-.096-.178m.32.357c.053 0 .097-.08.097-.18s-.044-.18-.098-.18m.101.355c.053 0 .096-.078.096-.174 0-.097-.043-.175-.096-.175m.447.318c.043 0 .078-.064.078-.143s-.035-.144-.078-.144M6.377 4.53a.632.632 0 0 1 .178-.075m1.514.092l-.05-.035m.14.106c.117-.125.214-.267.267-.428"/></g><path d="M6.923 1.37c0-.04.033-.058.072-.088.047-.035.066-.052.108-.052h.546c.04 0 .05.01.05.048v.742c0 .038-.01.048-.05.048h-.726v-.706" fill="#fff" stroke="#000" stroke-width=".01478375"/><path d="M7.514 2.133c.071 0 .059-.002.109-.052.052-.053.047-.048.047-.096v-.68c0-.034-.008-.044-.046-.044H7.12c-.04 0-.057.016-.1.049-.036.027-.066.043-.066.081v.742h.56z" fill="#e5e5e5" stroke="#000" stroke-width=".01478375"/><path d="M7.568 2.117c0 .037-.01.048-.05.048h-.546c-.04 0-.05-.01-.05-.048v-.742c0-.038.01-.048.05-.048h.546c.04 0 .05.01.05.048v.742z" fill="#fff" stroke="#000" stroke-width=".01478375"/><path d="M8.626-.653a.419.419 0 0 1 .083.435h-.158c.067-.2.025-.39-.258-.415-.423-.038-.914.781-1.655.881-.216-.258-.204-.749.07-.982-.142-.409-.441-.858-.649-1.053a2.036 2.036 0 0 0-.394-.027c.109-.233.417-.478.666-.578.04-.06.084-.116.124-.167.025-.32 1.547-.17 1.871.03 0 .357.142 1.552.3 1.876z" fill="#96877d" stroke="#000" stroke-width=".01478375"/><path d="M6.781-.434c-.036-.555-.26-1.011-.575-1.322.15.041.457.041.665-.108.275-.183.99-.503 1.252-.366.02.046.033.15.016.216-.062-.166-.752.092-.948.17-.187.088-.27.204-.203.466-.108-.091-.071-.179-.183-.245.045.108.083.303.095.461-.041-.112-.116-.353-.278-.494.141.274.264.933.206 1.282.112 0 .36-.11.459-.189-.087.125-.339.212-.501.246-.073.087-.123.311-.118.436-.013-.154.036-.529.113-.553zm1.845-.219C8.488-.806 8.23-.889 7.902-.8a1.062 1.062 0 0 1 .254-.083c-.012-.087-.091-.462-.104-.553l.092-.037c.045.224.103.482.141.586.03.008.096.02.154.05-.025-.088-.167-.715-.162-.782l.124-.066c.05.34.13.835.225 1.032z"/><path d="M8.551-.218c.067-.2.025-.39-.258-.415-.219-.02-.457.193-.738.415h.996zM6.713-2.01a1.661 1.661 0 0 1-.544-.054.595.595 0 0 1 .04-.117c-.086.058-.253.171-.315.25.2.042.612.063.82-.079z" fill="#96877d" stroke="#000" stroke-width=".01478375"/><path d="M6.708-.734c.046.133.076.261.08.375m-.457-2.033c-.075.11-.14.228-.162.328.141.046.42.07.544.054" fill="none" stroke="#000" stroke-width=".01478375"/><path d="M6.06-1.787c.053.009.104.02.146.03.15.042.457.042.665-.107.208-.15.774-.616 1.414-.665" fill="none" stroke="#000" stroke-width=".01478375"/><path d="M5.894-1.93c.2.04.612.062.82-.08.482-.328.947-.52 1.413-.544" fill="none" stroke="#000" stroke-width=".01478375"/><path d="M9.383.265c.698.482 1.214.948 1.363 1.696.15.749.433.948.782.749-.083.432-.515.482-.881.15.033.498-.167 1.097-.682 1.313-.033-.3.164-.536.108-.782-.025-.108-.033-.357.108-.474-.274.092-.707-.083-.748-.49.316.15.723.174.881-.225.158-.399.092-1.08-.931-1.937zm.881-3.892c.216-.566.782-.508.973-.266.557-.316.632.399 1.106.258-.008.133-.166.257-.34.249.182.166-.076.416.315.565-.332.167-.798-.008-.923-.465-.108.216-.499.216-.657.041.341-.091.316-.407.125-.532-.193-.125-.532-.075-.599.15zM8.577-2.382c.155.5.476.966.822 1.283.4.366 1.002.274 1.34-.075.007.696-.714.75-1.115.532-.177-.096-.32-.045-.15.108.258.233.822.406 1.489.55 1.164.249.748 1.172.407 1.163.098-.002.178-.104.038-.23-1.01-.909-3.065-.551-3.032-2.58-.216.532-1.106.324-.69-.308.133.108.366.116.433-.05.051-.13.018-.354-.215-.548.038-.003.12 0 .112-.095.01.056.061.139.192.11.037.06.077.099.13.078.01-.004.042-.02.03-.08.01.11.14.15.21.142z" fill="#337321" stroke="#000" stroke-width=".01478375"/><path d="M9.624-.642c.482.316 1.027.316 1.53-.266.158-.183.407-.34.582-.358.175-.016.166-.182.3-.216-.084-.025-.117-.124-.242-.112.312-.108.22-.357.374-.478-.124.046-.32-.141-.498.096.045-.109-.017-.237-.063-.287.017.124-.245.15-.295.465-.028.178-.125.167-.141-.108-.013-.2-.109-.757-.225-1.04-.116-.282-.143-.67.015-.728a.313.313 0 0 0-.098-.103c-.193-.125-.532-.075-.599.15-.216.565.391.89.341 1.505-.091-.457-.831-.574-.823-1.023-.241.108-.208.308-.117.466-.15-.233-.49.15-.781-.166-.034.415.332.573.632.59-.15.266.05.49.25.565.008-.465.962-.274.972.524.008.682-.723.74-1.114.524zm1.339.657c1.164.25.748 1.173.407 1.164-.217-.005-.424-.187-.436-.345-.25.133-.183.395.008.5-.524-.063-.744.282-.757.66.096-.174.387-.187.495-.15.108.038.387.059.499-.066-.092.08.058.262-.07.403.436-.016.627-.424.552-.602.566-.516.458-1.356-.698-1.564zm-.887 3.951c.076.048.067.147.015.21-.102.126.052.427-.265.478-.093.015-.163-.045-.194-.152-.086-.296.227-.316.26-.455.033-.138.12-.12.184-.08z" fill="#f7e017" stroke="#000" stroke-width=".01478375"/><path d="M9.79 4.504c.103.052.19.123.136.456-.023.137-.028.473.093.482-.076.034-.235.068-.297-.02-.067.101-.207.066-.258-.067-.076.058-.174-.048-.171-.136-.067.039-.194-.027-.154-.225-.08.025-.18-.035-.215-.087.117-.019.415-.165.49-.288.074-.123.258-.176.376-.115z" fill="#f7e017" stroke="#000" stroke-width=".01478375"/><path d="M9.722 5.421c.034-.045.054-.24.035-.359m-.293.293a.55.55 0 0 0 .176-.285m-.347.149c.066-.028.232-.226.272-.357m-.426.132c.077-.013.318-.157.421-.316" fill="none" stroke="#000" stroke-width=".01478375"/><path d="M8.376-1.631c-.014.852.34 1.283.831 1.564-.182-.11-.103-.483-.348-.604.058-.004.15.08.295.046-.07-.158-.187-.4-.457-.433.07-.008.224.017.324-.02-.141-.217-.516-.113-.645-.553zm-.088-.81c-.03-.01-.055-.04-.08-.08-.13.028-.182-.055-.192-.111.008.095-.075.092-.113.095.234.193.267.418.216.548-.067.166-.3.158-.433.05-.016.353.441.47.607.025 0 .075.096.066.12.166.12-.19.03-.465-.125-.694z" fill="#f7e017" stroke="#000" stroke-width=".01478375"/><path d="M7.557-4.13a1 1 0 0 1-.295-.695c.008-.183.083-.382.35-.3-.084 0-.026.167-.113.184.07.025.166-.033.179-.07.017.057.125.04.133.107.042-.033-.004-.195-.067-.228.046-.025.071-.154.05-.217-.041.009-.104.067-.116.15.02-.066-.004-.233-.12-.258a.22.22 0 0 0 .004.22c-.109-.024-.267.046-.304.138.008-.11.023-.267.091-.366.023-.033-.033-.091-.077-.012-.08-.158-.297-.242-.392-.163-.096.08-.225-.037-.304.088-.079.124-.347.138-.333.27.009.079-.01.201-.05.245-.095.108.046.187.071.283-.016-.316.487-.931.99-.69-.046.079-.086.237-.1.428-.02.283.02.682.295.915l.108-.03z" fill="#337321" stroke="#000" stroke-width=".01478375"/><path d="M7.707-5.12c-.003-.075.127-.172.301-.17.21.002.373.193.541.174.168-.018.085.075.05.1-.035.025-.056.062-.044.108.013.046-.009.076-.077.033-.15-.093-.3.038-.497-.035-.17-.063-.27-.098-.274-.21z" fill="#cf142b" stroke="#000" stroke-width=".01478375"/><path d="M6.85-3.157c-.083-.262-.399-.55-.553-.616l-.008-.141c.083-.033.283-.191.374-.279.624.3 1.472-.124 1.863-.565l.15.091-.075.1-.079-.041a4.68 4.68 0 0 1-.56.523c.145.036.343.062.398.059.35-.25.623-.474.757-.491l.112.15-.1.07-.079-.045c-.374.307-.798.981-.965 1.43-.232-.05-1.064-.017-1.235-.245z" fill="#96877d" stroke="#000" stroke-width=".01478375"/><path d="M7.961-4.085a.606.606 0 0 1-.13-.045c-.066.062-.232.116-.444.124" fill="none" stroke="#000" stroke-width=".01478375"/><path d="M6.884-3.249c-.056-.31.033-.653.191-.757.345.23.936.23 1.285-.02" fill="none" stroke="#000" stroke-width=".01478375"/><path d="M6.884-3.41c.266-.01.844.036.985.057.142.021.378.08.345.15m-1.207-.252l.076-.077-.076-.076-.077.076.077.077z" fill="none" stroke="#000" stroke-width=".01478375"/><path d="M7.187-5.003c-.095-.133-.359-.176-.416.004-.024.079-.062.162-.124.2-.063.037-.048.15-.021.199.066.12.008.237.137.316 0-.096.142-.196.262-.22.12-.025.304-.134.329-.254.025-.12.066-.22-.167-.245z" fill="#337321" stroke="#000" stroke-width=".01478375"/><path d="M6.589-3.806h.033v.227a.06.06 0 0 1 .02.01l.196-.112.017.029-.197.114a.06.06 0 0 1 0 .022l.197.113-.017.03-.197-.114a.058.058 0 0 1-.02.012v.226H6.59l-.001-.227a.058.058 0 0 1-.02-.01l-.196.112-.016-.029.196-.114a.06.06 0 0 1 0-.022l-.196-.113.016-.03.197.114a.058.058 0 0 1 .02-.012v-.226z" fill="#96877d" stroke="#000" stroke-width=".01478375"/><path d="M6.885-3.25a.394.394 0 1 1 .034-.516.853.853 0 0 0-.046.211.27.27 0 1 0-.268.297.275.275 0 0 0 .263-.202c0 .05.001.169.017.21z" fill="#96877d" stroke="#000" stroke-width=".01478375"/><path d="M6.439-2.875c-.025-.029-.07-.108-.067-.166a.215.215 0 0 1 .142.054c-.004-.041-.021-.133-.013-.175.046.017.142.071.175.134-.008-.042-.025-.15-.008-.217a.4.4 0 0 1 .15.163.713.713 0 0 1 .057-.254c.038.037.096.07.133.12.009-.066.042-.145.092-.166a.481.481 0 0 1 .108.245c.038-.012.087-.074.108-.108.02.034.042.092.03.163.045-.042.099-.1.112-.15a.324.324 0 0 1 .112.154c-.008-.054-.004-.15-.021-.204a.24.24 0 0 1 .125.154c.016-.058.054-.162.087-.187a.46.46 0 0 1 .062.212c.021-.042.055-.117.088-.133.029.045.025.145.016.2a.4.4 0 0 1 .117-.109.338.338 0 0 1 0 .112c.037-.02.1-.133.12-.19.059.028.117.128.121.178a.454.454 0 0 0 .15-.133c0 .029.012.108-.005.17.025-.025.05-.074.063-.095a.4.4 0 0 1-.013.195.217.217 0 0 1 .125-.054c.004.07-.046.196-.091.287-.4-.112-1.235-.154-2.075-.2z" fill="#337321" stroke="#000" stroke-width=".01478375"/><path d="M7.83-5.077c-.001-.031.067-.1.19-.1.147.001.282.11.4.101.118-.007.06.03.035.041-.025.01-.04.026-.03.044.008.02-.007.031-.054.014-.105-.038-.21.015-.348-.014-.12-.026-.19-.04-.192-.086z" fill="#f7e017"/><g stroke="#000" stroke-width=".01478375"><path d="M6.568-2.625c-.125.15-.25.125-.275.029-.025-.096.067-.141.034-.225-.034-.083.054-.12.095-.083.042.038.175-.083.233.042.058.125.104.212.07.262-.033.05-.132.025-.157-.025zm.536-.225c-.023-.054.106-.16.173-.085.066.075.17-.08.228.037.059.119.077.181.106.248.03.066-.158.102-.216.044.009.039-.161.07-.208-.042l-.083-.202zm.865.069c-.031-.058.12-.141.2-.035.02-.044.17-.052.18.074.01.127.015.202.02.252.003.05-.092.096-.161-.031-.123.025-.179-.044-.193-.117a.549.549 0 0 0-.046-.143z" fill="#f7e017"/><path d="M6.649-2.864c-.019-.042.106-.125.191-.063.085.063.203-.053.254.059.102.226.108.243.077.286-.032.044-.165.028-.198-.033-.006.042-.12.035-.18.002-.07-.037-.117-.176-.144-.251zm.875.01c-.03-.064.166-.12.252-.008.043-.04.139-.042.193.081.054.123.062.191.023.222-.028.022-.13.04-.162-.016-.046.029-.187.004-.219-.075-.03-.08-.058-.148-.087-.204zm.827.123c-.004-.058.102-.085.142 0 .04.085.166.008.177.15a.358.358 0 0 1-.054.18c-.04.05-.233 0-.246-.106a2.584 2.584 0 0 1-.019-.224z" fill="#337321"/><path d="M6.568-2.625c-.046-.062-.108-.162-.187-.054m.592.064a.475.475 0 0 1-.075-.14m.497.149a.341.341 0 0 1-.095-.106m.058-.113c.072.009.122.077.145.108.023.032.07.088.108.094m.219.048c-.025-.04-.05-.075-.056-.104m.002-.183a.553.553 0 0 1 .058.098m.374.243a.353.353 0 0 0-.129-.144m.112-.085c.005.123.169.131.175.218m.127-.2a.247.247 0 0 1 .025.115" fill="none"/></g></svg>