<svg height="600" viewBox="-1476 0 9997.426 6664.973" width="900" xmlns="http://www.w3.org/2000/svg"><path d="m-1476.005 0h9997.459v6664.973h-9997.459z" fill="#fff"/><g transform="matrix(3.38553 0 0 3.38495 3521.032 0)"><g fill="#29166f"><ellipse cy="631" rx="433" ry="433"/><path d="m-784 767c74-226 319-351 546-278 226 74 351 319 278 546-74 227-319 352-546 278s-352-319-278-546z"/><path d="m-485 1689c-193-140-236-412-95-605 140-193 412-236 604-96 193 141 236 412 96 605s-412 236-605 96z"/><path d="m485 1689c-193 140-465 97-605-96s-97-464 96-605c192-140 464-97 604 96 141 193 98 465-95 605z"/><path d="m784 767c74 227-51 472-278 546s-472-51-546-278c-73-227 52-472 278-546 227-73 472 52 546 278z"/></g><g fill="#fff"><ellipse cy="631" rx="366" ry="366"/><path d="m445 1635c-163 119-393 82-511-81-119-163-82-393 81-511 163-119 393-83 511 81 119 163 82 393-81 511z"/><path d="m-445 1635c-163-118-200-348-81-511 118-164 348-200 511-81 163 118 200 348 81 511-118 163-348 200-511 81z"/><path d="m-720 788c62-192 269-297 461-235s297 270 235 461c-62 192-270 298-461 235-192-62-298-269-235-461z"/><path d="m720 788c63 192-43 399-235 461-191 63-399-43-461-235-62-191 43-399 235-461s399 43 461 235z"/></g><g fill="#da251d"><ellipse cy="631" rx="321" ry="321"/><path d="m-679 803c55-168 237-261 405-206 168 54 260 236 206 404-55 168-236 261-405 206-168-54-260-236-206-404z"/><path d="m-419 1601c-143-104-175-306-71-449s305-174 448-71c143 104 175 306 71 449s-305 174-448 71z"/><path d="m419 1601c-143 103-344 72-448-71s-72-345 71-449c143-103 344-72 448 71s72 345-71 449z"/><path d="m679 803c54 168-38 350-206 404-169 55-350-38-405-206-54-168 38-350 206-404 168-55 350 38 405 206z"/></g></g><path d="m5721.624 2745.197c162.505 504.358-115.108 1049.336-619.551 1215.198-6.771 3.385-13.542 3.385-20.313 6.77 3.385 6.77 6.77 13.54 13.542 16.925 311.468 429.89 213.288 1035.796-213.288 1347.211-429.962 311.416-1035.972 216.637-1347.44-213.252-3.385-6.77-10.157-13.54-13.542-20.31-3.386 6.77-10.157 13.54-13.542 20.31-311.469 429.89-917.478 524.668-1347.44 213.252-426.576-311.415-524.756-917.322-213.288-1347.211 6.771-3.385 10.157-10.155 13.542-16.925-6.77-3.385-13.542-3.385-20.313-6.77-504.443-165.862-782.056-710.84-619.551-1215.198 165.89-504.358 710.96-781.924 1215.404-619.446l20.313 10.154v-23.694c0-531.438 433.347-964.712 964.875-964.712s964.875 433.274 964.875 964.712v20.31c6.771 0 13.542-3.385 20.313-6.77 504.444-162.478 1049.513 115.088 1215.404 619.446z" fill="#fff"/><ellipse cx="3521.032" cy="2663.78825" fill="#29166f" rx="741.47925" ry="741.47925" stroke-width="3.38575"/><g fill="#fff" transform="matrix(4.0629 0 0 4.07686 3521.032 -546.74)"><ellipse cy="787" rx="73" ry="73" transform="matrix(1 0 0 .99658 0 3.195)"/><path d="m0 642 17 65c-5-2-11-2-17-2s-12 0-17 2zm25 67 48-48-18 65c-8-8-18-14-30-17zm36 23 65-17-47 47c-4-11-10-21-18-30zm20 38 65 17-65 18c1-6 2-12 2-18s-1-11-2-17zm-2 43 47 47-65-17c8-9 14-19 18-30zm-24 36 18 65-48-48c12-4 22-10 30-17zm-38 19-17 65-17-65c5 1 11 2 17 2s12-1 17-2zm-42-2-48 48 18-65c8 7 18 13 30 17zm-36-23-65 17 47-47c4 11 10 21 18 30zm-20-38-65-18 65-17c-1 6-2 11-2 17s1 12 2 18zm2-43-47-47 65 17c-8 9-14 19-18 30zm24-36-18-65 48 48c-12 3-22 9-30 17z"/></g><path d="m2488.446 3669.29c247.144 0 446.89 199.712 446.89 443.428 0 247.102-199.746 446.814-446.89 446.814-247.143 0-446.889-199.712-446.889-446.814 0-243.716 199.746-443.429 446.89-443.429z" fill="#0077bd"/><path d="m2488.446 3740.373c206.518 0 372.408 169.248 372.408 372.345 0 206.482-165.89 375.73-372.408 375.73-206.517 0-372.408-169.248-372.408-375.73 0-203.097 165.891-372.345 372.408-372.345z" fill="#fff"/><path d="m3521.032 3669.29c247.143 0 446.89 199.712 446.89 443.428 0 247.102-199.747 446.814-446.89 446.814s-446.89-199.712-446.89-446.814c0-243.716 199.747-443.429 446.89-443.429z" fill="#1f1a17"/><path d="m3521.032 3740.373c206.517 0 372.408 169.248 372.408 372.345 0 206.482-165.89 375.73-372.408 375.73-206.517 0-372.408-169.248-372.408-375.73 0-203.097 165.89-372.345 372.408-372.345z" fill="#fff"/><path d="m4557.003 3669.29c243.758 0 446.89 199.712 446.89 443.428 0 247.102-203.132 446.814-446.89 446.814-247.143 0-446.89-199.712-446.89-446.814 0-243.716 199.747-443.429 446.89-443.429z" fill="#da251d"/><path d="m4557.003 3740.373c203.132 0 372.408 169.248 372.408 372.345 0 206.482-169.276 375.73-372.408 375.73-206.517 0-372.408-169.248-372.408-375.73 0-203.097 165.891-372.345 372.408-372.345z" fill="#fff"/><path d="m3003.046 4095.794c226.83 0 413.035 165.862 443.504 385.884-27.084-6.77-54.168-16.925-77.867-27.08-40.626-165.862-189.59-287.72-365.636-287.72-23.7 0-47.398 3.385-71.097 6.77 0-16.925 3.386-37.235 3.386-60.93v-13.54c20.313-3.384 44.012-3.384 67.71-3.384zm446.89 460.353c-6.771 236.947-203.132 429.89-446.89 429.89-243.757 0-443.503-199.713-443.503-446.815 0-192.942 125.264-362.19 301.311-419.734 0 27.08-3.385 54.16-10.156 81.239-128.65 57.544-220.06 189.557-220.06 338.495 0 206.483 169.277 375.73 372.409 375.73 206.517 0 375.793-169.247 375.793-375.73v-3.385c23.699 10.155 47.397 16.925 71.096 20.31z" fill="#f1a737"/><path d="m4039.017 4095.794c223.445 0 413.035 165.862 443.505 382.5-30.47-3.386-57.555-13.54-81.253-23.695-40.627-165.863-186.204-287.722-362.252-287.722-27.084 0-50.782 3.386-74.481 6.77 0-16.924 3.385-37.234 3.385-60.929v-13.54c23.7-3.384 47.398-3.384 71.097-3.384zm446.89 460.353c-10.157 236.947-206.517 429.89-446.89 429.89-247.143 0-446.889-199.713-446.889-446.815 0-192.942 125.264-362.19 301.312-419.734 0 27.08-3.386 54.16-10.157 81.239-128.65 60.93-216.673 189.557-216.673 338.495 0 206.483 165.89 375.73 372.408 375.73 206.517 0 372.407-169.247 372.407-375.73v-3.385c23.7 10.155 47.398 13.54 74.482 20.31z" fill="#009240"/></svg>